<svg width="1004" height="926" viewBox="0 0 1004 926" fill="none" xmlns="http://www.w3.org/2000/svg">
<path d="M930.457 746.166C875.142 746.166 69.3827 746.376 68.9136 744.863L68.8333 744.672C68.8333 744.672 68.7531 744.487 68.7531 744.394C68.4444 743.635 -55.3951 531.154 137.13 383.234C212.457 325.357 132.414 287.147 192.321 222.715C261.167 148.672 336.296 230.579 412.846 197.005C426.37 191.079 439.944 181.536 453.531 166.9C461.179 158.672 469.562 151.468 478.531 145.252C479.907 144.295 481.296 143.363 482.698 142.456C488.068 138.981 493.642 135.839 499.377 133.012C503.228 131.116 507.154 129.363 511.16 127.752C517.506 125.197 524.025 122.987 530.685 121.123C540.142 118.468 549.877 116.499 559.809 115.166C564.142 114.579 568.506 114.123 572.907 113.771C658.444 107.067 754.704 144.783 804.377 199.913C814.377 211.012 859.858 268.456 824.006 347.4C801.37 397.246 896.191 444.857 929.889 501.777C1015.56 646.493 931.222 744.277 930.444 746.166H930.457Z" fill="#F0FFFD"/>
<path opacity="0.5" d="M509.92 212.493L520.191 213.499C521.043 213.592 521.778 214.147 522.08 214.937C522.469 215.95 522.901 216.95 523.377 217.943C524.265 219.789 525.265 221.536 526.395 223.159C526.926 223.919 526.938 224.912 526.42 225.672L520.469 234.554C519.827 235.499 520.031 236.777 520.951 237.493L528.673 243.542C529.549 244.227 530.796 244.147 531.58 243.369L538.556 236.394C539.222 235.703 540.278 235.536 541.16 235.987C544.901 237.863 548.944 239.141 553.13 239.777C554.136 239.931 554.926 240.771 555.025 241.771L555.586 247.709C555.704 248.832 556.654 249.721 557.809 249.74L567.599 249.851C567.802 249.851 567.994 249.838 568.179 249.789C569.074 249.579 569.765 248.814 569.852 247.875L570.623 240.301L570.809 238.456C572.556 237.919 574.302 237.246 576 236.45C578.29 235.375 580.432 234.11 582.401 232.703C583.154 232.166 584.154 232.129 584.926 232.641L592.167 237.382C593.16 238.024 594.481 237.82 595.216 236.9L599.901 231.073L601.241 229.4C601.975 228.493 601.901 227.172 601.062 226.357L595.16 220.598C594.469 219.937 594.278 218.919 594.698 218.085C595.914 215.561 596.858 212.912 597.5 210.203C597.574 209.968 597.617 209.752 597.673 209.517C597.685 209.437 597.71 209.363 597.741 209.289C598.012 208.437 598.79 207.838 599.698 207.758L609.463 206.832C609.574 206.832 609.685 206.801 609.784 206.777C610.765 206.536 611.488 205.659 611.512 204.641L611.642 195.005C611.654 193.845 610.772 192.863 609.593 192.74L598.883 191.696C597.975 191.616 597.222 190.987 596.963 190.122C596.389 188.227 595.654 186.345 594.759 184.487C594.284 183.505 593.778 182.548 593.235 181.622C592.796 180.869 592.821 179.931 593.309 179.215L599.025 170.678C599.66 169.74 599.457 168.468 598.556 167.758L590.907 161.783C589.988 161.061 588.66 161.129 587.815 161.962L582.29 167.48C581.549 168.221 580.407 168.363 579.506 167.838C575.988 165.733 572.154 164.196 568.16 163.252C567.21 163.042 566.506 162.246 566.414 161.277L565.574 152.592C565.463 151.425 564.475 150.536 563.29 150.511L553.568 150.382C552.401 150.363 551.414 151.246 551.309 152.375L551.259 152.82L550.37 161.616C550.278 162.561 549.611 163.326 548.685 163.579H548.673C546.457 164.178 544.259 164.974 542.099 165.987C540.951 166.524 539.852 167.116 538.765 167.746C538.018 168.19 537.093 168.172 536.364 167.703L529.012 162.894C528.006 162.233 526.654 162.45 525.914 163.375L519.883 170.894C519.71 171.11 519.593 171.351 519.506 171.585C519.247 172.369 519.444 173.277 520.062 173.882L524.79 178.474C525.364 179.042 525.586 179.869 525.389 180.629C525.333 180.826 525.253 181.024 525.148 181.209C522.438 185.678 520.667 190.629 519.92 195.789C519.809 196.666 519.148 197.369 518.302 197.604C518.179 197.635 518.056 197.659 517.926 197.672L510.018 198.412C508.87 198.517 507.994 199.462 507.969 200.604V200.826L507.833 210.215C507.833 211.4 508.728 212.382 509.92 212.499V212.493ZM580.173 197.956C580.438 199.493 580.574 201.116 580.543 202.814C580.481 206.054 578.778 210.826 576.735 213.375C576.519 213.647 576.296 213.912 576.074 214.178C562.358 230.085 537.42 221.067 537.586 199.882C537.611 197.11 538.796 193.32 540.395 190.567C540.778 189.931 541.167 189.345 541.568 188.863C543.438 186.561 545.531 184.74 547.765 183.375C560.5 175.598 577.438 182.61 580.173 197.962V197.956Z" fill="#ABE2DB"/>
<path d="M627.259 187.61L633.802 189.191C634.346 189.326 634.765 189.752 634.889 190.295C635.043 190.987 635.228 191.672 635.451 192.357C635.852 193.635 636.339 194.851 636.92 196.005C637.191 196.549 637.105 197.184 636.704 197.629L632.031 202.833C631.525 203.382 631.543 204.228 632.068 204.777L636.5 209.388C637.006 209.913 637.815 209.968 638.395 209.542L643.556 205.666C644.049 205.277 644.747 205.271 645.278 205.635C647.525 207.184 650.018 208.382 652.66 209.172C653.296 209.363 653.728 209.975 653.698 210.629L653.506 214.518C653.475 215.258 654.006 215.913 654.753 216.036L661.068 216.993C661.197 217.012 661.321 217.024 661.451 217.005C662.049 216.95 662.568 216.518 662.71 215.919L663.914 211.092L664.204 209.913C665.383 209.721 666.574 209.45 667.747 209.086C669.327 208.598 670.833 207.975 672.235 207.24C672.772 206.962 673.42 207.024 673.87 207.425L678.111 211.147C678.691 211.654 679.568 211.641 680.123 211.11L683.698 207.771L684.716 206.808C685.278 206.283 685.352 205.425 684.883 204.826L681.605 200.567C681.222 200.079 681.191 199.4 681.543 198.9C682.562 197.376 683.42 195.752 684.086 194.055C684.154 193.913 684.204 193.777 684.259 193.629C684.272 193.579 684.296 193.53 684.321 193.487C684.58 192.962 685.136 192.641 685.728 192.672L692.13 192.962C692.204 192.968 692.278 192.962 692.346 192.962C693 192.894 693.549 192.394 693.66 191.734L694.642 185.518C694.759 184.765 694.278 184.055 693.531 183.87L686.704 182.221C686.123 182.086 685.698 181.61 685.611 181.03C685.414 179.752 685.117 178.468 684.716 177.184C684.5 176.505 684.259 175.845 683.994 175.197C683.784 174.672 683.883 174.067 684.265 173.647L688.753 168.647C689.247 168.098 689.241 167.258 688.722 166.721L684.333 162.166C683.802 161.616 682.944 161.536 682.321 162.005L678.235 165.073C677.685 165.487 676.938 165.475 676.401 165.049C674.321 163.37 671.988 162.03 669.494 161.055C668.901 160.833 668.518 160.252 668.549 159.623L668.815 153.931C668.852 153.166 668.296 152.505 667.531 152.382L661.259 151.419C660.506 151.302 659.784 151.783 659.617 152.505L659.543 152.789L658.148 158.394C658 158.993 657.5 159.431 656.877 159.505H656.87C655.383 159.691 653.889 160.005 652.401 160.468C651.605 160.715 650.84 160.993 650.086 161.302C649.562 161.524 648.963 161.425 648.537 161.055L644.235 157.277C643.648 156.758 642.753 156.777 642.185 157.308L637.586 161.623C637.457 161.746 637.358 161.894 637.278 162.036C637.037 162.518 637.08 163.123 637.426 163.573L640.056 166.968C640.37 167.388 640.438 167.944 640.241 168.419C640.185 168.542 640.117 168.66 640.031 168.771C637.864 171.413 636.259 174.456 635.296 177.721C635.142 178.277 634.648 178.672 634.08 178.752C634 178.765 633.914 178.765 633.827 178.758L628.648 178.524C627.895 178.487 627.241 179.018 627.117 179.752L627.093 179.894L626.136 185.95C626.025 186.715 626.512 187.431 627.272 187.616L627.259 187.61ZM674.025 184.579C674.056 185.598 673.988 186.66 673.809 187.752C673.469 189.839 671.92 192.771 670.364 194.234C670.198 194.394 670.031 194.542 669.864 194.691C659.518 203.728 644.235 195.635 646.315 181.962C646.593 180.172 647.704 177.833 649 176.197C649.302 175.82 649.611 175.475 649.92 175.203C651.346 173.882 652.864 172.9 654.438 172.215C663.395 168.339 673.691 174.407 674.031 184.586L674.025 184.579Z" fill="#DCF8F4"/>
<path d="M576.833 322.925L593.019 324.783C594.364 324.95 595.5 325.845 595.963 327.104C596.549 328.715 597.204 330.308 597.932 331.888C599.284 334.826 600.821 337.61 602.562 340.203C603.377 341.419 603.37 342.981 602.531 344.166L592.901 358.03C591.858 359.499 592.148 361.53 593.58 362.684L605.611 372.437C606.975 373.542 608.944 373.45 610.21 372.246L621.414 361.413C622.482 360.339 624.154 360.104 625.543 360.833C631.407 363.888 637.753 366.018 644.339 367.129C645.926 367.4 647.154 368.74 647.278 370.32L648.006 379.709C648.161 381.493 649.636 382.913 651.463 382.974L666.914 383.407C667.228 383.419 667.537 383.4 667.833 383.32C669.253 383.012 670.364 381.82 670.525 380.339L671.944 368.4L672.284 365.493C675.062 364.691 677.833 363.678 680.537 362.462C684.179 360.826 687.599 358.888 690.741 356.709C691.944 355.882 693.525 355.845 694.728 356.672L706.037 364.345C707.586 365.382 709.685 365.098 710.858 363.666L718.414 354.586L720.574 351.981C721.759 350.561 721.679 348.481 720.37 347.172L711.21 337.919C710.136 336.857 709.864 335.246 710.549 333.937C712.537 329.981 714.099 325.826 715.185 321.561C715.309 321.197 715.389 320.851 715.469 320.487C715.488 320.363 715.531 320.246 715.58 320.129C716.037 318.789 717.272 317.863 718.71 317.758L734.154 316.555C734.327 316.555 734.506 316.512 734.667 316.481C736.222 316.129 737.389 314.758 737.451 313.147L737.907 297.937C737.963 296.104 736.593 294.536 734.735 294.308L717.852 292.382C716.42 292.234 715.247 291.221 714.864 289.845C714.006 286.839 712.901 283.845 711.537 280.888C710.815 279.32 710.037 277.802 709.204 276.326C708.531 275.123 708.599 273.647 709.383 272.524L718.636 259.191C719.66 257.728 719.377 255.715 717.975 254.573L706.056 244.937C704.617 243.771 702.525 243.845 701.173 245.141L692.309 253.709C691.117 254.857 689.315 255.055 687.907 254.203C682.407 250.789 676.401 248.258 670.117 246.666C668.63 246.314 667.531 245.03 667.414 243.505L666.321 229.765C666.173 227.919 664.636 226.493 662.772 226.425L647.426 225.968C645.58 225.907 644 227.271 643.809 229.055L643.716 229.752L642.074 243.623C641.901 245.11 640.827 246.302 639.358 246.672H639.34C635.821 247.567 632.333 248.765 628.901 250.302C627.074 251.123 625.321 252.024 623.599 252.993C622.414 253.678 620.938 253.629 619.809 252.863L608.333 245.073C606.765 244.005 604.623 244.308 603.432 245.752L593.71 257.462C593.432 257.795 593.241 258.178 593.099 258.549C592.673 259.783 592.957 261.215 593.92 262.191L601.259 269.561C602.148 270.475 602.481 271.789 602.148 272.981C602.056 273.289 601.926 273.598 601.747 273.894C597.346 280.882 594.42 288.654 593.105 296.783C592.901 298.166 591.84 299.258 590.5 299.61C590.309 299.66 590.105 299.691 589.901 299.709L577.395 300.672C575.586 300.808 574.167 302.277 574.099 304.079L574.086 304.431L573.63 319.252C573.593 321.123 574.982 322.697 576.858 322.913L576.833 322.925ZM688.142 301.795C688.519 304.228 688.685 306.795 688.593 309.481C688.407 314.598 685.593 322.092 682.296 326.055C681.944 326.481 681.586 326.894 681.228 327.302C659.148 352.061 620.006 337.172 620.84 303.734C620.957 299.363 622.92 293.407 625.525 289.098C626.142 288.11 626.772 287.191 627.42 286.431C630.432 282.839 633.784 280.024 637.352 277.925C657.667 265.974 684.222 277.481 688.136 301.795H688.142Z" fill="#ABE2DB"/>
<path d="M396.265 354.74C396.265 354.74 404.111 273.746 346.481 245.252C346.481 245.252 335.21 239.888 326.895 251.363C318.586 262.838 341.944 270.764 354.63 280.752C367.321 290.74 393.531 323.832 396.259 354.74H396.265Z" fill="#ABE2DB"/>
<path d="M401.278 323.882C401.278 323.882 421.321 266.24 384.383 235.549C384.383 235.549 377.117 229.697 369.037 236.623C360.951 243.549 376.568 253.351 384.043 262.808C391.518 272.271 404.759 300.895 401.284 323.876L401.278 323.882Z" fill="#ABE2DB"/>
<path d="M853.019 685.37C880.321 652.061 828.259 602.993 828.259 602.993C828.259 602.993 740.691 606.919 731.086 596.74C721.482 586.561 805.278 578.944 805.278 578.944C791.537 555.752 724.228 519.691 724.228 519.691C724.228 519.691 657.457 572.635 650.685 560.438C643.914 548.24 712.228 516.543 712.228 516.543C690.512 500.104 651.42 498.191 651.42 498.191C593.185 502.475 601.852 576.11 601.852 576.11C601.852 576.11 578.309 593.962 539.975 598.956C539.975 598.956 532.457 599.277 521.333 602.08L525.519 607.796C527.414 607.154 529.29 606.604 531.148 606.141C531.161 606.135 531.167 606.129 531.185 606.135C531.21 606.129 531.241 606.123 531.265 606.117C532.444 605.87 534.13 605.524 536.191 605.123H536.198C536.198 605.123 536.204 605.123 536.21 605.123C540.951 604.401 544.37 603.759 546.759 603.191C546.765 603.191 546.772 603.191 546.778 603.184C561.469 600.672 581.142 598.123 587.796 601.03C587.796 601.03 588.235 599.752 589.556 597.913C588.994 598.907 588.414 599.944 587.796 601.03C573.741 625.956 606.025 677.425 631.636 700.66C657.253 723.894 656.333 706.456 658.216 682.765C660.099 659.073 634.253 630.685 632.556 618.061C630.858 605.438 645.531 615.191 657.42 634.382C669.309 653.573 657.568 675.777 676.235 707.166C694.895 738.549 767.16 721.067 767.16 721.067C745.951 705.333 730.661 660.901 736.716 654.456C742.765 648.012 781.463 702.357 789.722 709.234C797.988 716.11 825.71 718.684 853.012 685.376L853.019 685.37Z" fill="#DCF8F4"/>
<path d="M228.241 675.271C210.481 653.61 244.339 621.697 244.339 621.697C244.339 621.697 301.29 624.252 307.531 617.629C313.778 611.012 259.284 606.055 259.284 606.055C268.222 590.974 311.994 567.518 311.994 567.518C311.994 567.518 355.414 601.95 359.821 594.018C364.228 586.086 319.796 565.468 319.796 565.468C333.92 554.777 359.34 553.53 359.34 553.53C397.21 556.32 391.574 604.203 391.574 604.203C391.574 604.203 406.883 615.814 431.815 619.061C431.815 619.061 436.704 619.271 443.938 621.092L441.216 624.814C439.988 624.4 438.765 624.036 437.556 623.74C437.549 623.74 437.543 623.74 437.531 623.74C437.512 623.74 437.494 623.734 437.481 623.728C436.716 623.567 435.617 623.345 434.278 623.079C434.278 623.079 434.278 623.079 434.272 623.079C431.191 622.61 428.963 622.191 427.407 621.82H427.395C417.84 620.184 405.043 618.524 400.722 620.419C400.722 620.419 400.438 619.592 399.58 618.394C399.944 619.042 400.327 619.715 400.722 620.419C409.864 636.629 388.87 670.104 372.21 685.209C355.549 700.32 356.148 688.981 354.92 673.573C353.698 658.166 370.5 639.703 371.611 631.493C372.716 623.283 363.173 629.629 355.438 642.104C347.704 654.586 355.339 669.024 343.204 689.437C331.068 709.851 284.074 698.481 284.074 698.481C297.864 688.246 307.809 659.351 303.877 655.16C299.944 650.968 274.778 686.314 269.401 690.783C264.025 695.258 246 696.931 228.241 675.271V675.271Z" fill="#DCF8F4"/>
<path d="M209.87 300.061C220.772 274.357 265.284 288.66 265.284 288.66C265.284 288.66 290.006 339.37 298.87 341.66C307.735 343.95 286.321 294.234 286.321 294.234C304.006 294.851 345.679 321.777 345.679 321.777C345.679 321.777 335.556 375.845 344.722 375.913C353.883 375.981 351.21 327.586 351.21 327.586C367.438 334.796 380.605 356.302 380.605 356.302C396.074 390.542 350.691 408.345 350.691 408.345C350.691 408.345 347.593 427.154 356.519 450.363C356.519 450.363 358.654 454.715 360.451 461.863L355.846 461.259C355.636 459.993 355.377 458.759 355.068 457.567C355.068 457.561 355.068 457.555 355.062 457.542C355.062 457.524 355.056 457.505 355.049 457.493C354.827 456.752 354.506 455.691 354.105 454.4C354.105 454.4 354.105 454.394 354.105 454.388C353.062 451.487 352.383 449.357 351.975 447.826V447.814C348.901 438.734 344.315 426.826 340.58 423.962C340.58 423.962 341.185 423.32 341.846 422.005C341.444 422.629 341.019 423.277 340.58 423.962C330.457 439.592 290.648 437.215 269.278 429.894C247.901 422.58 258.302 417.721 271.463 409.351C284.623 400.981 309.062 406.839 316.907 403.907C324.753 400.975 314.574 395.691 299.778 394.882C284.981 394.079 275.722 407.561 251.759 406.691C227.802 405.82 215.661 359.579 215.661 359.579C231.327 366.715 261.815 361.66 263.685 356.252C265.556 350.845 222.105 345.728 215.568 343.178C209.031 340.629 198.988 325.752 209.889 300.049L209.87 300.061Z" fill="#ABE2DB"/>
<path d="M719.315 746.37C719.315 746.37 719.315 740.709 720.13 738.826C720.944 736.944 723.945 729.283 723.945 729.283H735.654C735.654 729.283 737.833 736.277 737.969 738.561C738.105 740.845 737.969 746.37 737.969 746.37H719.315Z" fill="#1E3865"/>
<path d="M793.679 746.37C793.679 746.37 793.679 740.709 792.864 738.826C792.049 736.944 789.049 729.283 789.049 729.283H777.34C777.34 729.283 775.161 736.277 775.025 738.561C774.889 740.845 775.025 746.37 775.025 746.37H793.679Z" fill="#1E3865"/>
<path d="M746.759 428.672C746.759 428.672 746.346 441.277 744.71 446.925L731.778 455.832L780.463 463.024L768.852 447.184C768.852 447.184 765.346 430.283 767.185 424.036C769.025 417.783 746.759 428.672 746.759 428.672V428.672Z" fill="#FFAE73"/>
<path d="M746.685 430.413C746.685 430.413 750.537 439.561 757.784 439.357C765.037 439.154 766.685 431.061 766.685 431.061L746.679 430.413H746.685Z" fill="#F99352"/>
<path d="M742.358 423.006C742.358 423.006 740.018 411.462 738.383 407.969C736.747 404.475 735.389 388.876 753.5 388.074C753.5 388.074 760.444 388.882 764.259 386.592C764.259 386.592 764.259 388.876 763.309 389.685C763.309 389.685 769.574 388.203 774.475 393.586C779.377 398.962 771.21 417.783 771.617 422.222L742.364 423.006H742.358Z" fill="#2A3967"/>
<path d="M756.957 435.826C751.704 435.734 742.031 428.826 742.031 420.277V406.931C742.031 403.808 744.235 401.252 746.932 401.252H766.981C769.679 401.252 771.883 403.808 771.883 406.931V419.524C771.883 428.493 762.981 435.937 756.957 435.832V435.826Z" fill="#FFAE73"/>
<path d="M742.031 414.055C742.031 414.055 742.062 406.037 748.494 404.802C754.926 403.567 769.327 408.709 771.37 402.864C773.414 397.018 743.531 397.117 742.031 400.845C740.525 404.574 742.031 414.055 742.031 414.055Z" fill="#2A3967"/>
<path d="M720.784 550.345C720.784 550.345 722.833 612.117 719.772 647.363C716.71 682.61 719.796 731.66 719.796 731.66C719.796 731.66 729.593 736.993 740.216 731.66C740.216 731.66 751.864 663.567 751.79 647.363C751.71 630.104 764.469 553.042 764.469 553.042L720.784 550.351V550.345Z" fill="#6B98F6"/>
<path d="M793.253 731.654C793.253 731.654 783.457 736.987 772.833 731.654C772.833 731.654 761.185 663.567 761.259 647.357C761.29 640.067 759.037 622.11 756.42 603.796C752.84 578.746 748.58 553.036 748.58 553.036L793.957 550.24C793.957 550.24 790.216 612.117 793.278 647.357C796.339 682.604 793.253 731.654 793.253 731.654V731.654Z" fill="#6B98F6"/>
<path d="M793.414 560.623C793.414 560.623 774.068 564.32 756.42 564.32C748.722 564.32 740.358 563.487 733.698 562.604C726.333 561.641 721.056 560.623 721.056 560.623C721.056 560.623 717.136 560.962 719.451 541.87C721.21 527.345 720.661 514.228 720.265 500.734C720.222 499.234 720.253 497.456 720.346 495.481C721.099 479.746 725.92 451.419 729.593 449.901C729.593 449.901 735.056 447.894 744.704 446.919C744.704 447.104 750.303 455.185 756.951 456.092C761.08 454.481 764.327 453.104 768.846 447.178C774.568 447.839 780.815 448.956 787.488 450.728C787.488 450.728 788.185 453.728 790.803 505.79C791.846 526.413 798.975 560.685 793.407 560.617L793.414 560.623Z" fill="#FF912B"/>
<path d="M761.259 647.363C761.29 640.073 759.037 622.116 756.42 603.802C759.136 592.863 765.753 582.339 765.753 582.339C774.13 605.53 761.259 647.363 761.259 647.363Z" fill="#577BEC"/>
<path d="M701.994 509.826C701.117 512.536 703.543 516.191 705.914 521.32C710.79 531.857 718.895 547.425 718.895 547.425C717.722 551.82 716.438 554.53 716.438 554.53C702.809 543.956 694.019 534.962 688.414 528.067C680.531 518.37 679.877 508.573 681.34 504.333C698.858 453.487 730.617 449.58 730.617 449.58L728.093 489.882C728.093 489.882 703.809 504.246 702 509.833L701.994 509.826Z" fill="#FF912B"/>
<path d="M717.272 548.191C717.272 548.191 724.623 541.468 727.623 545.234C730.617 548.999 731.167 554.913 728.852 554.512C726.537 554.11 721.772 551.956 721.086 553.03C720.407 554.104 717.352 556.16 716.426 554.53C715.5 552.894 717.272 548.191 717.272 548.191Z" fill="#FFAE73"/>
<path d="M718.889 547.425C717.716 551.82 716.432 554.53 716.432 554.53C702.802 543.956 694.012 534.962 688.407 528.067C692.636 527.759 698.809 526.265 705.914 521.32C710.79 531.857 718.895 547.425 718.895 547.425H718.889Z" fill="#FFAE73"/>
<path d="M834.994 508.419C835.123 511.586 834.482 518.369 826.599 528.067C820.988 534.962 812.204 543.956 798.574 554.53C798.574 554.53 797.284 551.814 796.117 547.425C796.117 547.425 804.216 531.863 809.099 521.32C811.469 516.19 813.161 513.802 812.617 511.876C810.877 505.74 796.228 497.184 790.074 492.579C788.043 491.061 786.926 489.876 786.926 489.876L787.5 450.734C787.5 450.734 795.568 452.697 800.543 457.61C820.772 477.586 834.401 493.629 835 508.419H834.994Z" fill="#FF912B"/>
<path d="M797.728 548.191C797.728 548.191 790.376 541.468 787.376 545.234C784.383 548.999 783.833 554.913 786.148 554.512C788.463 554.11 793.228 551.956 793.914 553.03C794.593 554.104 797.648 556.16 798.574 554.53C799.5 552.894 797.728 548.191 797.728 548.191Z" fill="#FFAE73"/>
<path d="M796.111 547.425C797.284 551.82 798.568 554.53 798.568 554.53C812.198 543.956 820.988 534.962 826.593 528.067C822.364 527.759 816.191 526.265 809.086 521.32C804.21 531.857 796.105 547.425 796.105 547.425H796.111Z" fill="#FFAE73"/>
<path d="M745.389 443.851C745.389 443.851 743.228 444.74 742.611 447.16C742.611 447.16 751.284 455.962 756.957 456.098L745.389 443.851Z" fill="#25468F"/>
<path d="M756.963 456.098L768.154 443.407C768.154 443.407 770.463 444.907 770.432 447.376C770.432 447.376 761.778 456.431 756.963 456.098V456.098Z" fill="#25468F"/>
<path d="M754.945 455.166C754.945 455.166 746.401 527.969 749.377 536.839C750.907 541.407 752.957 545.357 754.586 548.117C755.759 550.104 758.667 550.098 759.827 548.104C762.099 544.215 765.062 538.592 765.062 535.734C765.062 531.11 758.58 455.098 758.58 455.098L754.945 455.16V455.166Z" fill="#25468F"/>
<path d="M752.704 451.734C752.704 451.734 757.864 450.987 761.012 451.45C761.636 451.542 761.982 452.524 761.679 453.308C760.796 455.592 759 459.542 757.124 459.542C754.482 459.542 750.364 451.993 752.71 451.734H752.704Z" fill="#25468F"/>
<path d="M752.772 427.228C752.772 427.228 754.407 429.413 757.265 429.332C760.123 429.252 761.469 427.228 761.469 427.228C761.469 427.228 756.648 426.45 752.772 427.228Z" fill="white"/>
<path d="M218.63 473.104C217.802 470.647 229.907 478.184 244.333 473.413C256.765 469.301 245.556 461.289 248.722 451.122C250.975 443.888 250.265 424.443 231.049 423.666C231.049 423.666 226.432 420.906 219.753 423.092C204.574 428.067 173.012 476.653 218.63 473.104Z" fill="#0B3563"/>
<path d="M239.685 517.653C239.685 517.653 241.512 521.221 244.821 525.32C248.815 530.252 269.759 518.542 267.957 517.653C266.154 516.764 255.951 488.172 251.63 483.104C247.63 478.413 242.068 477.345 242.068 477.345L239.685 517.653V517.653Z" fill="#6B98F6"/>
<path d="M168.988 719.579C168.988 719.579 163.204 724.789 164.333 728.493C165.463 732.197 170.679 734.66 171.383 739.184C172.086 743.709 174.907 746.178 177.444 746.178H189.549C189.549 746.178 191.42 742.993 186.907 742.036C182.395 741.079 180.691 735.758 180.975 730.826C181.259 725.894 180.549 719.314 180.549 719.314L170.957 717.123L168.981 719.592L168.988 719.579Z" fill="#143057"/>
<path d="M217.926 721.789C217.926 721.789 215.846 743.857 218.383 745.092L250.87 745.024C250.87 745.024 250.87 741.32 245.654 740.499C240.438 739.678 231.272 736.66 229.716 729.944C228.167 723.228 217.926 721.789 217.926 721.789V721.789Z" fill="#143057"/>
<path d="M192.938 502.765C192.938 502.765 192.457 509.505 192.938 517.586C193.259 522.944 198.753 530.123 199.531 531.9C201.488 536.351 203.691 537.079 203.691 537.079L220.747 541.209L226.747 542.66L245.66 537.086C245.66 537.086 254.278 513.351 250.815 499.987C247.358 486.623 242.074 477.345 242.074 477.345C242.074 477.345 229.222 474.493 206.543 476.079L192.938 502.765V502.765Z" fill="#6B98F6"/>
<path d="M191.309 517.777C191.63 523.135 198.747 530.129 199.525 531.907C201.481 536.357 203.685 537.086 203.685 537.086L220.741 541.215L225.29 534.882C225.29 534.882 197.679 527.302 202.907 503.271L191.309 517.79V517.777Z" fill="#577BEC"/>
<path d="M244.451 540.684C244.451 540.684 253.815 569.462 254.42 579.265C255.019 589.061 236.519 718.462 235.772 722.981C235.068 727.234 229.716 729.95 229.716 729.95C229.716 729.95 227.253 731.382 223.741 730.407C218.864 729.049 217.321 727.419 217.321 727.419C217.321 727.419 210.031 635.129 214.543 602.166C219.056 569.197 219.105 540.691 219.105 540.691H244.451V540.684Z" fill="#FC7600"/>
<path d="M204.772 539.826C204.772 539.826 190.481 558.752 189.154 571.542C187.821 584.333 187.062 629.271 184.228 641.74C181.389 654.209 170.963 678.209 170.963 717.11C170.963 717.11 172.049 719.339 175.395 720.53C176.463 720.907 177.901 721.277 179.29 721.592C182.049 722.215 184.883 720.882 186.142 718.382C193.191 704.37 215.642 659.184 216.796 649.808C217.611 643.172 224.698 599.24 240.167 573.462C243.877 567.271 237.889 542.66 237.889 542.66L204.784 539.826H204.772Z" fill="#FF912B"/>
<path d="M245.951 536.24C245.951 536.24 242.191 539.178 234.722 539.326C225.802 539.505 203.691 537.079 203.691 537.079C203.691 537.079 202.71 539.789 202.747 542.647C202.747 542.647 229.747 549.37 245.395 543.629C245.395 543.629 247.414 539.882 245.951 536.24V536.24Z" fill="#577BEC"/>
<path d="M232.79 542.37C232.79 539.864 234.617 537.82 236.864 537.82C239.111 537.82 240.938 539.864 240.938 542.37C240.938 544.876 239.111 546.919 236.864 546.919C234.617 546.919 232.79 544.876 232.79 542.37ZM234.142 542.37C234.142 544.141 235.364 545.586 236.864 545.586C238.364 545.586 239.586 544.141 239.586 542.37C239.586 540.598 238.364 539.154 236.864 539.154C235.364 539.154 234.142 540.598 234.142 542.37Z" fill="white"/>
<path d="M217.352 555.19L257.938 555.567L277.907 509.234L237.321 508.863L217.352 555.19Z" fill="#0B3563"/>
<path d="M222.66 534.259L225.636 530.647C225.636 530.647 227.648 528.876 229.111 528.573C230.574 528.271 233.654 526.518 233.957 527.012C234.253 527.506 231.586 531.036 231.586 531.036L231.451 531.055C234.512 533.326 242.253 531.32 243.204 532.252C244.358 533.376 241.611 535.808 240.136 537.172C238.66 538.536 234.438 540.814 231.148 539.802C228.741 539.061 224.957 538.314 224.957 538.314L222.66 534.259Z" fill="#FFAE73"/>
<path d="M274.852 517.388C274.852 517.388 272.302 514.524 270.679 515.9C269.056 517.271 271.105 524.024 272.648 523.339C274.191 522.653 275.741 518.227 274.852 517.388Z" fill="#FFAE73"/>
<path d="M206.537 476.08C206.537 476.08 193.006 477.018 187.815 489.462C182.63 501.913 173.093 522.401 175.142 530.987C175.957 534.407 185.821 546.265 226.932 538.734C226.932 538.734 226.599 534.487 223.821 532.499C223.821 532.499 194.852 523.32 194.901 521.493C194.994 518.036 198.815 515.055 215 499.073C219.401 494.728 206.537 476.086 206.537 476.086V476.08Z" fill="#6B98F6"/>
<path d="M215.481 476.684C215.08 476.154 215.599 474.468 216.235 471.333C216.815 468.493 217.796 464.092 217.772 459.147L218.63 459.289L233.031 461.678C233.031 461.678 232.704 465.481 232.691 469.061C232.691 469.092 232.691 469.123 232.691 469.147C232.673 472.259 233.543 476.956 232.481 477.567C227.025 480.722 217.019 478.709 215.488 476.678L215.481 476.684Z" fill="#FFAE73"/>
<path d="M233.025 461.684C233.025 461.684 232.741 467.042 232.728 470.623C224.673 470.431 220.37 462.709 218.623 459.289L233.025 461.678V461.684Z" fill="#F48F4E"/>
<path d="M233.895 468.073C233.895 468.073 215.019 465.419 216.877 453.839C218.735 442.258 217.543 434.116 229.673 435.326C241.802 436.53 243.432 441.314 243.765 445.326C244.099 449.339 238.852 468.462 233.895 468.073V468.073Z" fill="#FFAE73"/>
<path d="M238.296 436.388C238.296 436.388 230.951 449.16 222.716 449.925C214.481 450.691 211.389 448.055 211.389 448.055C211.389 448.055 218.222 444.252 220.827 436.141C220.827 436.141 235.457 429.308 238.302 436.388H238.296Z" fill="#0B3563"/>
<path d="M236.839 437.295C236.839 437.295 240.432 439.308 241.562 442.308C242.667 445.24 243.401 449.011 242.389 453.339C242.389 453.339 247.759 444.715 244.241 438.808C240.506 432.542 236.833 437.295 236.833 437.295H236.839Z" fill="#0B3563"/>
<path d="M668.963 289.449H325.148V745.449H668.963V289.449Z" fill="#066155"/>
<path opacity="0.9" d="M656.29 300.228H337.821V734.678H656.29V300.228Z" fill="#DCF8F4"/>
<path d="M424.34 282.166C420.765 282.166 417.87 285.024 417.87 288.554V300.912C417.87 311.264 426.994 319.659 438.241 319.659H547.667C558.92 319.659 568.037 311.264 568.037 300.912V287.912C568.037 284.74 565.432 282.166 562.216 282.166H424.34Z" fill="#FF7536"/>
<path d="M428.901 612.295H364.593V548.808H428.901V612.295ZM367.617 609.308H425.87V551.802H367.617V609.308Z" fill="#3DA193"/>
<path d="M398.339 599.536C396.994 599.536 395.704 598.943 394.84 597.906L374.994 574.209C373.395 572.301 373.667 569.474 375.599 567.894C377.531 566.314 380.395 566.585 381.994 568.493L397.735 587.289L426.204 540.116C427.488 537.986 430.278 537.289 432.432 538.561C434.586 539.826 435.296 542.579 434.012 544.709L402.241 597.351C401.488 598.604 400.16 599.412 398.685 599.53C398.568 599.536 398.451 599.542 398.339 599.542V599.536Z" fill="#FF912B"/>
<path d="M611.315 582.641H454.796V587.851H611.315V582.641Z" fill="#3DA193"/>
<path d="M611.315 605.925H454.796V611.135H611.315V605.925Z" fill="#3DA193"/>
<path d="M611.315 594.283H567.722V599.493H611.315V594.283Z" fill="#3DA193"/>
<path d="M551.66 594.283H454.796V599.493H551.66V594.283Z" fill="#3DA193"/>
<path d="M611.315 666.277H454.796V671.487H611.315V666.277Z" fill="#3DA193"/>
<path d="M611.315 689.554H454.796V694.764H611.315V689.554Z" fill="#3DA193"/>
<path d="M611.315 677.913H567.722V683.123H611.315V677.913Z" fill="#3DA193"/>
<path d="M551.66 677.913H454.796V683.123H551.66V677.913Z" fill="#3DA193"/>
<path d="M632.444 415.092H511.432V420.301H632.444V415.092Z" fill="#3DA193"/>
<path d="M632.444 438.376H511.432V443.586H632.444V438.376Z" fill="#3DA193"/>
<path d="M634.537 426.734H600.833V431.944H634.537V426.734Z" fill="#3DA193"/>
<path d="M586.321 426.734H511.432V431.944H586.321V426.734Z" fill="#3DA193"/>
<path d="M632.444 349.53H511.432V354.74H632.444V349.53Z" fill="#3DA193"/>
<path d="M632.444 372.814H511.432V378.024H632.444V372.814Z" fill="#3DA193"/>
<path d="M634.537 361.172H600.833V366.382H634.537V361.172Z" fill="#3DA193"/>
<path d="M586.321 361.172H511.432V366.382H586.321V361.172Z" fill="#3DA193"/>
<path opacity="0.3" d="M620.938 469.962H525.031C517.52 469.962 511.432 476.051 511.432 483.561V512.814C511.432 520.324 517.52 526.413 525.031 526.413H620.938C628.449 526.413 634.537 520.324 634.537 512.814V483.561C634.537 476.051 628.449 469.962 620.938 469.962Z" fill="#FF912B"/>
<g opacity="0.5">
<path d="M622.87 483.938H521.34V489.147H622.87V483.938Z" fill="#FF912B"/>
<path d="M622.87 507.221H521.34V512.431H622.87V507.221Z" fill="#FF912B"/>
<path d="M624.63 495.58H596.352V500.789H624.63V495.58Z" fill="#FF912B"/>
<path d="M584.173 495.58H521.34V500.789H584.173V495.58Z" fill="#FF912B"/>
</g>
<path d="M428.901 715.351H364.593V651.864H428.901V715.351ZM367.617 712.364H425.87V654.858H367.617V712.364Z" fill="#3DA193"/>
<path d="M398.339 702.586C396.994 702.586 395.704 701.993 394.84 700.956L374.994 677.259C373.395 675.351 373.667 672.524 375.599 670.944C377.531 669.363 380.395 669.635 381.994 671.542L397.735 690.339L426.204 643.166C427.488 641.036 430.278 640.339 432.432 641.61C434.586 642.876 435.296 645.629 434.012 647.759L402.241 700.401C401.488 701.654 400.16 702.462 398.685 702.579C398.568 702.586 398.451 702.592 398.339 702.592V702.586Z" fill="#FF912B"/>
<path d="M393.278 434.216C393.278 434.216 319.302 461.067 283.377 532.604L307.809 528.469L318.148 545.635C318.148 545.635 346.747 481.277 405.568 461.987L393.278 434.216V434.216Z" fill="#3DA193"/>
<path d="M368.741 438.042C368.741 438.042 444.988 457.74 487.716 525.536L463 523.74L454.383 541.808C454.383 541.808 419.642 480.468 359.21 466.851L368.741 438.042Z" fill="#3DA193"/>
<path d="M389.093 511.055C441.376 511.055 483.759 469.216 483.759 417.604C483.759 365.993 441.376 324.154 389.093 324.154C336.81 324.154 294.426 365.993 294.426 417.604C294.426 469.216 336.81 511.055 389.093 511.055Z" fill="#FF7536"/>
<g opacity="0.9">
<path d="M389.086 501.456C342.253 501.456 304.148 463.839 304.148 417.604C304.148 371.37 342.253 333.752 389.086 333.752C435.92 333.752 474.031 371.37 474.031 417.604C474.031 463.839 435.926 501.456 389.086 501.456ZM389.086 336.314C343.679 336.314 306.741 372.783 306.741 417.604C306.741 462.425 343.679 498.894 389.086 498.894C434.494 498.894 471.432 462.425 471.432 417.604C471.432 372.783 434.488 336.314 389.086 336.314Z" fill="#E9F1FF"/>
</g>
<g opacity="0.9">
<path d="M351.642 373.277H358.772V405.265H351.642V373.277Z" fill="#E9F1FF"/>
<path d="M364.648 400.604L368.858 395.623C371.772 397.999 374.827 399.506 378.531 399.506C381.444 399.506 383.204 398.364 383.204 396.401C383.204 394.617 382.093 393.703 376.679 392.333C370.154 390.685 365.938 388.907 365.938 382.462C365.938 376.66 370.66 372.82 377.278 372.82C382 372.82 386.025 374.283 389.315 376.888L385.611 382.191C382.741 380.228 379.92 379.036 377.185 379.036C374.451 379.036 373.018 380.271 373.018 381.913C373.018 384.012 374.407 384.703 380.006 386.117C386.58 387.808 390.284 390.135 390.284 395.802C390.284 402.154 385.377 405.715 378.389 405.715C373.481 405.715 368.531 404.024 364.642 400.598L364.648 400.604Z" fill="#E9F1FF"/>
<path d="M395.062 389.271C395.062 380.178 402.327 372.728 412.327 372.728C422.327 372.728 429.5 380.086 429.5 389.271C429.5 398.456 422.235 405.814 412.235 405.814C402.235 405.814 395.062 398.456 395.062 389.271ZM422.049 389.271C422.049 383.79 417.975 379.215 412.235 379.215C406.494 379.215 402.512 383.691 402.512 389.271C402.512 394.851 406.586 399.327 412.327 399.327C418.068 399.327 422.049 394.851 422.049 389.271Z" fill="#E9F1FF"/>
<path d="M334.259 451.215L338.006 445.87C340.364 447.746 342.358 448.611 345.086 448.611C349.068 448.611 351.198 445.641 351.66 441.345C350.086 442.672 347.914 443.536 345.086 443.536C338.049 443.536 333.512 439.697 333.512 433.117C333.512 426.536 338.556 421.919 345.87 421.919C350.222 421.919 352.765 422.969 355.222 425.394C357.537 427.678 359.062 431.154 359.062 437.549C359.062 447.919 354.111 455.006 344.895 455.006C340.173 455.006 336.981 453.45 334.247 451.215H334.259ZM351.802 432.845C351.802 430.012 349.673 427.956 346.111 427.956C342.549 427.956 340.605 429.969 340.605 432.888C340.605 435.808 342.735 437.685 346.253 437.685C349.772 437.685 351.809 435.672 351.809 432.839L351.802 432.845Z" fill="#E9F1FF"/>
<path d="M364.068 438.468C364.068 429.19 369.901 421.925 378.506 421.925C387.111 421.925 392.858 429.098 392.858 438.468C392.858 447.839 387.074 455.011 378.414 455.011C369.753 455.011 364.062 447.839 364.062 438.468H364.068ZM385.543 438.468C385.543 432.666 382.673 428.277 378.414 428.277C374.154 428.277 371.377 432.524 371.377 438.468C371.377 444.413 374.197 448.66 378.506 448.66C382.815 448.66 385.543 444.363 385.543 438.468Z" fill="#E9F1FF"/>
<path d="M397.864 438.468C397.864 429.19 403.698 421.925 412.309 421.925C420.92 421.925 426.66 429.098 426.66 438.468C426.66 447.839 420.877 455.011 412.222 455.011C403.568 455.011 397.87 447.839 397.87 438.468H397.864ZM419.339 438.468C419.339 432.666 416.469 428.277 412.21 428.277C407.951 428.277 405.173 432.524 405.173 438.468C405.173 444.413 407.994 448.66 412.302 448.66C416.611 448.66 419.339 444.363 419.339 438.468Z" fill="#E9F1FF"/>
<path d="M437.16 429.376L431.512 430.746L430.031 424.987L439.333 422.246H444.191V454.462H437.154V429.376H437.16Z" fill="#E9F1FF"/>
</g>
<path d="M92.8025 745.351H134.506C136.741 743.481 132.957 739.228 129.006 738.944C127.29 738.814 125.117 739.172 122.642 739.684C122.068 732.16 118.79 698.333 106.438 699.691C92.5494 701.215 106.438 714.586 110.364 722.505C113.272 728.37 116.34 736.783 117.741 740.752C116.611 740.993 115.444 741.228 114.253 741.444C112.414 735.863 105.562 717.098 96.8518 718.191C86.6234 719.468 90.7346 726.993 97.9815 731.462C103.296 734.746 109.827 739.413 112.932 741.672C110.302 742.098 107.562 742.382 104.778 742.32C97.6358 742.154 94.1481 744.228 92.7963 745.351H92.8025Z" fill="#9BD399"/>
<path d="M897.29 744.981H855.586C853.352 743.111 857.136 738.858 861.086 738.574C862.802 738.444 864.975 738.802 867.451 739.314C868.025 731.79 871.302 697.963 883.654 699.321C897.543 700.845 883.654 714.216 879.728 722.135C876.821 728 873.753 736.413 872.352 740.382C873.481 740.623 874.648 740.858 875.84 741.074C877.679 735.493 884.531 716.728 893.241 717.821C903.469 719.098 899.358 726.623 892.111 731.092C886.796 734.376 880.265 739.043 877.161 741.302C879.79 741.728 882.531 742.012 885.315 741.95C892.457 741.783 895.944 743.864 897.296 744.981H897.29Z" fill="#9BD399"/>
<path d="M4.02469 744.764H1001.98C1002.54 744.764 1003 745.221 1003 745.789V746.548C1003 747.116 1002.54 747.573 1001.98 747.573H4.02469C3.45679 747.567 3 747.11 3 746.542V745.783C3 745.221 3.45679 744.764 4.02469 744.764Z" fill="#1E3865"/>
</svg>
