<svg width="800" height="800" viewBox="0 0 800 800" fill="none" xmlns="http://www.w3.org/2000/svg">
<path d="M424.972 109.832C486.755 109.653 562.913 127.168 612.709 186.17C636.075 213.856 647.777 239.868 652.704 263.91C681.175 287.811 697.638 323.066 697.687 360.239C697.644 383.229 691.312 405.768 679.376 425.416C728.11 444.081 760.292 490.858 760.306 543.043C760.246 578.163 745.531 611.665 719.708 635.468C718.897 636.789 718.403 637.515 718.403 637.515L780 691.256H20C20 691.256 50.6573 682.945 77.4252 668.748C60.8991 654.138 51.4195 633.15 51.383 611.092C51.4184 579.29 70.9686 550.771 100.617 539.27C75.5986 514.874 61.4875 481.411 61.4825 446.467C61.6041 400.51 86.0459 358.052 125.727 334.868C118.01 318.924 113.978 301.448 113.926 283.735C113.926 218.474 166.831 165.569 232.092 165.569C232.093 165.569 232.093 165.569 232.093 165.569C246.754 165.569 261.286 168.298 274.949 173.616C291.4 153.5 311.221 140.09 329.903 128.323C344.83 118.921 381.312 109.959 424.972 109.832Z" fill="#F0FFFD"/>
<path d="M95.2872 447.465C128.629 447.547 157.825 454.478 174.525 473.608C233.901 541.625 223.003 574.605 295.721 579.654C368.439 584.704 416.851 567.287 443.648 629.271C465.991 680.952 539.913 659.004 577.336 691.255H20.0001C20.0001 691.255 50.6574 682.945 77.4253 668.747C60.8992 654.137 51.4196 633.149 51.3831 611.091C51.4185 579.29 70.9688 550.77 100.617 539.269C76.3643 515.562 62.3669 483.296 61.6262 449.389C73.0946 448.143 84.4116 447.438 95.2872 447.465Z" fill="#DCF8F4"/>
<path d="M193.16 108H431.873C460.001 108 482.645 130.644 482.645 158.772V640.484C482.645 668.611 459.991 690.508 431.873 691.255H315.104H193.16C165.032 691.255 142.388 668.611 142.388 640.484V158.772C142.388 130.644 165.032 108 193.16 108Z" fill="#7ACAC0"/>
<path d="M217.271 154.762H407.761C430.206 154.762 448.276 172.832 448.276 195.277V579.676C448.276 602.121 430.199 619.594 407.761 620.191H314.581H217.271C194.826 620.191 176.756 602.121 176.756 579.676V195.277C176.756 172.832 194.826 154.762 217.271 154.762Z" fill="#DCF8F4"/>
<path d="M194.722 108H255.807V202.238H128.328C135.77 158.114 137.259 108 194.722 108Z" fill="#7ACAC0"/>
<path d="M255.807 108H369.226V202.238H255.807V108V108Z" fill="#ABE2DB"/>
<path d="M128.448 202.238C130.171 226.754 150.893 245.98 175.887 245.98H208.758C233.753 245.98 254.084 226.754 255.806 202.238H128.448V202.238Z" fill="#3DA193"/>
<path d="M255.807 202.238C257.529 226.754 277.861 245.98 302.855 245.98H322.057C347.051 245.98 367.383 226.754 369.105 202.238H255.807V202.238Z" fill="#7ACAC0"/>
<path d="M430.311 108H369.226V202.238H496.705C489.262 158.114 487.773 108 430.311 108Z" fill="#7ACAC0"/>
<path d="M496.584 202.238C494.862 226.754 474.14 245.98 449.145 245.98H416.274C391.28 245.98 370.948 226.754 369.226 202.238H496.584V202.238Z" fill="#3DA193"/>
<path d="M333.78 655.355C333.78 667.099 324.26 676.619 312.516 676.619C300.772 676.619 291.252 667.099 291.252 655.355C291.252 643.611 300.772 634.091 312.516 634.091C324.26 634.091 333.78 643.611 333.78 655.355Z" fill="#DCF8F4"/>
<path d="M636.377 647.832L624.188 649.403V668.841L634.977 665.951C634.977 665.951 644.489 655.479 636.377 647.832Z" fill="#F6CDC1"/>
<path d="M601.825 552.963C598.907 567.013 588.144 578.911 565.726 587.063C558.476 589.7 549.423 590.482 539.918 590.172C535.155 623.026 526.04 670.99 532.197 680.811C542.163 698.582 569.421 688.376 569.421 688.376L624.188 668.841V649.403L563.417 657.396C563.417 657.396 586.711 609.606 594.396 590.394C602.081 571.183 601.825 552.965 601.825 552.963Z" fill="#6584F7"/>
<path d="M602.452 539.954H464.234C464.234 539.954 452.467 539.96 445.502 549.568C438.538 559.174 440.459 577.186 443.341 587.993C446.223 598.799 467.246 660.038 467.246 660.038H487.548L478.64 578.418C478.64 578.418 536.667 597.63 565.726 587.063C594.784 576.496 604.264 559.638 602.452 539.954Z" fill="#6584F7"/>
<path d="M601.825 552.963C598.907 567.013 588.144 578.911 565.726 587.063C558.476 589.7 549.423 590.482 539.918 590.172C539.03 596.291 537.984 602.996 536.922 609.82C559.036 606.352 591.686 596.202 600.707 566.521C601.898 558.429 601.825 552.964 601.825 552.963Z" fill="#3362C4"/>
<path d="M491.03 673.722L487.548 660.038H471.152H467.246L472.07 679.32L491.03 673.722Z" fill="#F6C6C0"/>
<path d="M468.598 665.441L472.07 679.32L491.031 673.722L488.923 665.441H468.598Z" fill="white"/>
<path d="M439.495 691.258H495.867L491.03 673.722L484.659 671.98C480.322 667.792 472.384 666.766 466.966 672.937C466.966 672.937 457.05 680.071 452.213 680.192C442.413 680.192 438.75 682.068 439.495 691.258Z" fill="#3D3D3D"/>
<path d="M636.376 647.832L629.43 648.727L631.326 666.929L634.977 665.951C634.976 665.951 644.488 655.479 636.376 647.832Z" fill="white"/>
<path d="M636.376 647.832C637.718 653.045 635.026 661.792 633.152 662.874C631.07 663.751 625.815 666.971 627.879 670.46C628.386 675.718 628.097 678.405 625.606 680.118C621.443 682.981 613.934 683.471 614.232 691.258H640.944C645.067 691.258 652.806 667.605 653.26 654.057C653.655 646.806 652.921 646.079 646.255 646.786L636.376 647.832Z" fill="#3D3D3D"/>
<path d="M449.726 608.165C456.898 629.89 467.247 660.038 467.247 660.038H487.548L481.887 608.165H449.726Z" fill="#3362C4"/>
<path d="M624.189 649.403L582.11 654.938V683.85L624.189 668.841V649.403Z" fill="#3362C4"/>
<path d="M727.691 409.902C727.691 443.413 700.525 470.579 667.013 470.579C633.502 470.579 606.336 443.413 606.336 409.902C606.336 376.39 633.502 349.224 667.013 349.224C700.524 349.224 727.691 376.391 727.691 409.902Z" fill="#3DA193"/>
<path d="M572.662 312.838C577.996 331.714 581.114 353.889 604.676 380.691C632.068 401.136 610.369 445.502 583.858 443.735C557.346 441.968 515.258 443.773 515.258 443.773L494.301 436.704C494.301 436.704 480.667 413.979 494.806 396.305C508.946 378.63 498.01 328.346 498.01 328.346C498.01 328.346 549.42 303.455 572.662 312.838Z" fill="#3D3D3D"/>
<path d="M533.063 382.828C524.012 382.798 512.743 384.601 507.08 392.706C498.537 401.833 487.954 407.534 473.157 423.838C467.998 429.524 461.691 443.8 458.207 451.444C450.976 467.312 442.116 485.209 435.354 503.695L465.439 505.596L468.125 500.855C468.248 501.015 469.001 500.283 469.001 500.283L484.791 484.06C486.631 489.488 491.516 493.657 499.78 495.638L518.623 539.954H602.452C597.943 514.012 593.412 488.073 588.92 462.129C590.169 461.963 596.567 470.764 597.926 470.566C609.235 468.92 622.052 454.996 620.753 451.692C618.605 446.224 593.844 398.442 581.737 391.217C574.342 386.804 562.857 385.142 555.031 384.516C552.472 384.186 549.654 384.054 546.537 384.136C546.537 384.136 540.562 382.854 533.063 382.828Z" fill="#FF6853"/>
<path d="M501.443 334.589L496.216 347.808C477.831 345.813 486.287 304.108 501.443 334.589Z" fill="#F69CB3"/>
<path d="M543.579 347.808C543.579 347.808 542.272 365.778 542.599 373.619C542.926 381.461 542.762 385.708 542.762 385.708L523.603 403.127L513.602 393.795L519.009 373.614L543.579 347.808Z" fill="#F6C6C0"/>
<path d="M543.579 347.808L519.009 373.614L514.919 388.878C518.901 389.711 523.258 389.555 526.426 386.525C533.941 379.338 536.228 361.04 536.228 361.04L543.579 347.808Z" fill="#F69CB3"/>
<path d="M543.579 347.808C561.964 345.813 553.508 304.107 538.352 334.589C534.28 327.782 525.757 317.808 530.381 304.67C516.689 309.131 505.332 312.584 490.643 308.598C484.794 372.57 516.896 411.463 543.579 347.808Z" fill="#F6C6C0"/>
<path d="M542.762 339.149C542.681 338.822 543.661 334.085 546.356 330.818C549.052 327.55 551.339 331.471 551.339 331.471C551.339 331.471 548.888 330.736 547.5 333.023C546.111 335.31 550.767 338.169 546.438 340.946C542.109 343.724 542.762 339.149 542.762 339.149Z" fill="#F69CB3"/>
<path d="M523.603 403.128L542.752 383.979L542.673 377.425C549.372 382.14 550.218 389.561 549.166 393.511L537.038 418.616L523.603 403.128Z" fill="white"/>
<path d="M513.601 393.796L516.899 381.506C509.905 383.174 503.475 392.971 505.083 399.442C505.601 401.355 510.26 418 510.26 418L523.603 403.128L513.601 393.796Z" fill="white"/>
<path d="M490.643 311.754C494.815 327.323 521.503 348.014 536.642 341.35L538.352 334.589C538.352 334.589 542.743 324.86 548.144 323.522C553.545 322.183 572.662 312.839 572.662 312.839C572.662 312.839 565.739 282.934 549.075 271.445C532.41 259.957 506.435 271.89 491.286 281.107C482.574 286.406 484.755 297.416 484.755 297.416C480.841 306.001 474.402 313.071 479.705 323.17C485.007 333.27 490.387 334.993 490.387 334.993C490.387 334.993 489.471 322.094 490.643 311.754Z" fill="#3D3D3D"/>
<path d="M499.78 495.638C507.321 495.638 516.908 494.893 526.663 478.504C534.377 486.337 543.671 493.778 562.48 490.12L513.766 528.489L499.78 495.638Z" fill="#E0523C"/>
<path d="M484.791 484.06V468.39L469.002 500.283L484.791 484.06Z" fill="#E0523C"/>
<path d="M602.453 539.954C602.453 539.954 602.898 543.647 602.622 546.201C602.346 548.756 602.07 550.827 602.07 550.827L518.624 539.954H602.453Z" fill="white"/>
<path d="M346.239 398.206H318.937C311.706 398.206 305.885 404.027 305.885 411.258C305.885 418.489 311.706 424.31 318.937 424.31H346.239C353.469 424.31 359.291 418.488 359.291 411.258C359.291 404.027 353.469 398.206 346.239 398.206Z" fill="#B7BBFF"/>
<path d="M96.5993 270.385H343.904C357.126 270.385 367.771 281.03 367.771 294.253V445.999C367.771 459.222 357.126 469.867 343.904 469.867H96.5993C83.3766 469.867 72.7316 459.222 72.7316 445.999V294.253C72.7316 281.03 83.3766 270.385 96.5993 270.385Z" fill="#ABE2DB"/>
<path d="M362.565 444.847C362.311 443.723 358.018 436.064 356.941 431.361C355.689 425.895 359.262 421.897 360.936 424.792C369.056 436.487 378.639 444.864 382.68 458.647C383.417 460.669 384.388 463.09 385.17 464.816C397.652 471.564 419.224 482.201 437.261 493.21C446.158 498.64 453.367 505.278 459.824 509.394C451.202 518.403 439.72 522.217 431.956 518.91C409.135 508.884 395.952 492.704 376.981 475.68L365.445 470.369C360.149 467.04 353.752 454.717 362.565 444.847Z" fill="#F6CDC1"/>
<path d="M461.341 510.508L465.439 505.596L440.069 480.941L437.261 493.211L461.341 510.508Z" fill="white"/>
<path d="M612.38 454.555C622.777 455.116 633.914 467.064 631.344 475.102C623.51 498.679 593.316 512.586 578.198 532.894C579.53 538.635 572.33 540.247 566.822 540.247L535.54 540.064C534.892 540.089 534.276 540.061 533.746 539.77C531.291 538.341 533.402 535.332 538.069 532.556C550.786 526.203 556.742 526.349 567.082 524.501C580.171 508.58 590.233 492.036 602.241 474.786C607.243 467.6 609.343 460.469 612.38 454.555Z" fill="#F6C6C0"/>
<path d="M602.241 474.787L594.83 470.419L623.988 442.689L629.763 458.768L602.241 474.787Z" fill="white"/>
<path d="M247.468 516.78H370.013C380.64 516.78 389.194 525.335 389.194 535.961V563.993C389.194 574.619 380.64 583.174 370.013 583.174H247.468C236.841 583.174 228.287 574.619 228.287 563.993V535.961C228.287 525.335 236.841 516.78 247.468 516.78Z" fill="#7ACAC0"/>
<path d="M124.499 429.641L187.224 429.799C196.893 429.823 203.219 421.974 201.995 412.382L195.308 360.003C194.084 350.412 187.568 342.53 177.898 342.505L135.627 342.399C125.958 342.375 119.353 350.217 118.13 359.809L111.453 412.154C110.23 421.746 114.83 429.616 124.499 429.641Z" fill="#066155"/>
<path d="M152.5 309.26C142.735 309.235 134.671 317.258 134.646 327.023L134.56 361.128C134.506 364.38 137.123 367.048 140.376 367.056C143.629 367.064 146.26 364.41 146.222 361.157L146.308 327.052C146.317 323.546 148.965 320.912 152.471 320.921L161.513 320.944C165.019 320.953 167.654 323.6 167.645 327.106L167.56 361.211C167.505 364.463 170.123 367.131 173.376 367.139C176.628 367.147 179.259 364.492 179.221 361.24L179.307 327.135C179.331 317.37 171.308 309.307 161.543 309.282L152.5 309.26Z" fill="#7ACAC0"/>
<path d="M315.138 310.586L315.041 322.828H227.323L227.419 310.586H315.138Z" fill="#3DA193"/>
<path d="M277.034 344.094L277.004 356.337H227.323L227.353 344.094H277.034Z" fill="#3DA193"/>
<path d="M304.651 375.025L304.603 387.267H227.323L227.37 375.025H304.651Z" fill="#3DA193"/>
<path d="M330.84 530.558V530.559C329.626 530.559 328.417 531.003 327.529 531.824C327.523 531.829 327.518 531.835 327.513 531.84C326.657 532.651 326.126 533.825 326.126 535.006C326.126 535.807 326.351 536.553 326.696 537.316C326.701 537.326 326.705 537.336 326.71 537.346C327.059 538.078 327.576 538.975 328.29 540.114C328.294 540.121 328.298 540.127 328.302 540.133L335.989 552.05V561.889C335.989 563.499 336.347 564.972 337.336 566.057C337.34 566.062 337.345 566.066 337.349 566.07C338.261 567.049 339.599 567.58 340.947 567.58C342.295 567.58 343.63 567.03 344.546 566.049C345.551 564.972 345.929 563.493 345.929 561.889V552.054L353.801 539.976L353.804 539.972C354.505 538.92 355.015 538.086 355.358 537.381C355.736 536.606 355.948 535.765 355.948 534.916C355.948 533.773 355.419 532.647 354.598 531.859C353.753 531.022 352.559 530.558 351.368 530.558C350.634 530.558 349.903 530.692 349.242 531.036C348.653 531.342 348.142 531.776 347.713 532.287C347.711 532.289 347.709 532.291 347.708 532.292C347.356 532.714 347.034 533.169 346.741 533.651C346.49 534.064 346.18 534.574 345.81 535.181L341.09 542.764L336.419 535.179L336.418 535.176C335.47 533.627 334.788 532.605 334.118 531.888C333.298 530.973 332.057 530.558 330.84 530.558ZM295.931 530.559C294.574 530.559 293.227 531.107 292.32 532.103C292.315 532.109 292.311 532.114 292.307 532.119C291.347 533.199 290.995 534.647 290.995 536.227V551.89C290.995 554.47 291.272 556.744 291.866 558.724C291.866 558.726 291.867 558.727 291.867 558.729C292.467 560.711 293.442 562.428 294.795 563.78C294.797 563.783 294.8 563.786 294.803 563.788C296.16 565.129 297.896 566.096 299.913 566.708C299.917 566.709 299.921 566.711 299.925 566.712C301.933 567.305 304.241 567.58 306.862 567.58C309.099 567.58 311.106 567.314 312.882 566.745C314.671 566.171 316.278 565.24 317.639 563.981C317.641 563.979 317.643 563.977 317.646 563.975C319.219 562.503 320.336 560.723 320.909 558.727C321.474 556.809 321.729 554.543 321.729 551.89V536.228C321.729 534.63 321.353 533.158 320.344 532.092C319.432 531.1 318.087 530.559 316.728 530.559C315.365 530.559 314.01 531.105 313.11 532.112C312.137 533.187 311.792 534.638 311.792 536.227V552.379C311.792 554.949 311.274 556.65 310.542 557.597C309.877 558.443 308.675 558.996 306.397 558.996C304.734 558.996 303.606 558.682 302.952 558.264C302.22 557.78 301.759 557.186 301.452 556.296C301.128 555.298 300.935 553.942 300.935 552.246V536.227C300.935 534.645 300.57 533.189 299.595 532.114C298.686 531.095 297.314 530.559 295.932 530.559H295.931V530.559ZM272.91 531.114L262.357 531.114C260.698 531.114 259.182 531.487 258.11 532.559C257.034 533.635 256.688 535.15 256.688 536.828V561.31C256.688 562.958 257.03 564.447 258.046 565.538C258.056 565.547 258.064 565.556 258.074 565.565C259.145 566.662 260.674 567.024 262.357 567.024H272.309C274.08 567.024 275.649 566.941 277.03 566.767C277.036 566.766 277.042 566.765 277.048 566.764C278.453 566.57 279.734 566.243 280.885 565.762C280.894 565.758 280.903 565.754 280.912 565.75C282.778 564.931 284.323 563.614 285.423 561.902C285.424 561.9 285.426 561.898 285.427 561.896C286.528 560.165 287.088 558.173 287.088 556.066C287.088 553.794 286.436 551.715 285.112 550.075C284.389 549.179 283.456 548.454 282.402 547.832C284.395 546.068 285.555 543.697 285.555 540.959C285.555 539.831 285.367 538.733 284.988 537.7C284.611 536.662 284.056 535.705 283.341 534.863C282.636 534.019 281.809 533.308 280.879 532.752C279.785 532.09 278.554 531.649 277.231 531.426C275.968 531.212 274.534 531.114 272.91 531.114ZM266.626 539.408H270.311C272.584 539.408 274.184 539.71 274.957 540.072C274.962 540.075 274.967 540.078 274.973 540.08C275.554 540.345 275.75 540.578 275.75 541.826C275.75 542.329 275.645 542.699 275.429 543.06C275.418 543.08 275.407 543.099 275.397 543.119C275.095 543.675 274.788 543.93 274.255 544.113C274.252 544.114 274.25 544.115 274.247 544.116C273.661 544.321 272.539 544.489 271 544.489H266.626V539.408H266.626ZM266.626 552.561C266.953 552.656 267.214 552.643 267.438 552.561H271.822C273.938 552.561 275.365 552.938 276.097 553.408C276.78 553.845 277.061 554.326 277.061 555.579C277.061 556.8 276.769 557.346 276.083 557.84C275.397 558.335 274.072 558.73 272.043 558.73H266.626V552.561H266.626Z" fill="#F2F4FF"/>
<path d="M64.1358 543.525C64.8174 553.234 57.4993 561.658 47.7902 562.339C38.0813 563.021 29.6579 555.703 28.9765 545.994C28.2949 536.285 35.613 527.862 45.3219 527.18C55.031 526.498 63.4542 533.816 64.1358 543.525Z" fill="#8AD1C8"/>
<path d="M81.8446 575.76C82.8356 589.881 72.1919 602.132 58.0707 603.123C43.9495 604.114 31.6983 593.471 30.707 579.35C29.716 565.229 40.3597 552.977 54.4809 551.986C68.6021 550.994 80.8533 561.638 81.8446 575.76Z" fill="#8AD1C8"/>
<path d="M76.537 507.101C73.3763 506.929 70.8496 509.694 71.3056 512.826C71.3056 512.826 79.5559 576.154 77.7104 621.177C77.5402 623.978 79.7029 626.373 82.5065 626.488C85.31 626.602 87.6614 624.393 87.7211 621.588C89.6318 574.976 81.241 511.522 81.241 511.522C80.9576 509.1 78.9718 507.234 76.537 507.101Z" fill="#3DA193"/>
<path d="M53.2444 557.277C50.0807 557.379 47.8037 560.353 48.53 563.434C48.53 563.434 62.2498 625.806 64.3215 670.82C64.3949 673.625 66.7577 675.823 69.5605 675.694C72.3639 675.565 74.5144 673.159 74.3301 670.359C72.1851 623.757 58.3147 561.272 58.3147 561.272C57.8218 558.884 55.6816 557.197 53.2444 557.277Z" fill="#8AD1C8"/>
<path d="M110.515 563.933C113.676 564.107 115.886 567.131 115.091 570.195C115.091 570.195 99.9845 632.245 96.9095 677.202C96.7738 680.005 94.3627 682.149 91.563 681.958C88.7634 681.766 86.6669 679.313 86.9138 676.518C90.0971 629.976 105.357 567.815 105.357 567.815C105.903 565.438 108.08 563.8 110.515 563.933Z" fill="#7ACAC0"/>
<path d="M126.904 592.885C125.813 604.655 115.388 613.313 103.618 612.222C91.8479 611.132 83.1906 600.706 84.2809 588.936C85.3714 577.167 95.7968 568.509 107.567 569.599C119.337 570.69 127.994 581.115 126.904 592.885Z" fill="#7ACAC0"/>
<path d="M38.2853 639.101L44.5462 679.615C45.4152 685.979 49.7168 691.208 56.1392 691.208H107.648C114.071 691.208 118.256 685.962 119.241 679.615L125.143 639.101H38.2853Z" fill="#8AD1C8"/>
<path d="M38.2853 639.101L39.9961 650.274H123.55L125.143 639.101H38.2853Z" fill="#3DA193"/>
<path d="M35.4529 618.401H128.276C134.698 618.401 139.869 623.571 139.869 629.994C139.869 636.416 134.698 641.587 128.276 641.587H35.4529C29.0305 641.587 23.8599 636.416 23.8599 629.994C23.8599 623.571 29.0305 618.401 35.4529 618.401Z" fill="#ABE2DB"/>
<path d="M93.0452 505.758C92.0973 515.987 83.0364 523.512 72.8068 522.564C62.577 521.616 55.0525 512.555 56.0004 502.326C56.948 492.096 66.0091 484.572 76.239 485.52C86.4683 486.468 93.9928 495.528 93.0452 505.758Z" fill="#3DA193"/>
<path d="M105.329 538.275C104.024 552.37 91.5382 562.738 77.4426 561.432C63.3467 560.126 52.9788 547.641 54.2847 533.545C55.5906 519.45 68.0759 509.082 82.1715 510.387C96.2671 511.693 106.635 524.178 105.329 538.275Z" fill="#3DA193"/>
<path d="M129.584 560.961C128.761 569.846 120.891 576.381 112.007 575.558C103.122 574.734 96.5877 566.865 97.4105 557.981C98.2337 549.096 106.103 542.561 114.987 543.384C123.872 544.207 130.407 552.077 129.584 560.961Z" fill="#7ACAC0"/>
<path d="M694.522 353.234C698.736 353.234 702.128 361.789 702.128 372.415V661.03C702.128 671.656 698.735 680.211 694.522 680.211C690.309 680.211 686.917 671.656 686.917 661.03V372.415C686.917 361.789 690.309 353.234 694.522 353.234Z" fill="#3DA193"/>
<path d="M759.824 307.943C759.824 345.768 729.161 376.432 691.336 376.432C653.511 376.432 622.848 345.768 622.848 307.943C622.848 270.118 653.511 239.455 691.336 239.455C729.161 239.455 759.824 270.118 759.824 307.943Z" fill="#ABE2DB"/>
<path d="M779.551 380.22C779.551 413.731 752.385 440.897 718.874 440.897C685.363 440.897 658.197 413.731 658.197 380.22C658.197 346.709 685.363 319.542 718.874 319.542C752.385 319.542 779.551 346.709 779.551 380.22Z" fill="#7ACAC0"/>
<path d="M656.166 638.273L662.426 679.615C663.295 685.979 667.597 691.208 674.019 691.208H725.873C732.296 691.208 736.481 685.962 737.466 679.615L743.368 638.273H656.166Z" fill="#8AD1C8"/>
<path d="M656.166 638.273L657.941 650.274H741.674L743.368 638.273H656.166Z" fill="#3DA193"/>
<path d="M738.986 550.398C742.718 552.352 741.754 561.505 736.826 570.919L712.09 618.158C707.161 627.572 700.188 633.577 696.455 631.623C692.723 629.669 693.686 620.517 698.616 611.103L723.351 563.863C728.28 554.449 735.253 548.444 738.986 550.398Z" fill="#3DA193"/>
<path d="M653.678 618.401H746.502C752.924 618.401 758.095 623.571 758.095 629.994C758.095 636.417 752.924 641.587 746.502 641.587H653.678C647.256 641.587 642.085 636.417 642.085 629.994C642.086 623.571 647.256 618.401 653.678 618.401Z" fill="#ABE2DB"/>
<path d="M770.77 557.749C770.77 570.217 760.663 580.325 748.195 580.325C735.727 580.325 725.62 570.217 725.62 557.749C725.62 545.281 735.727 535.174 748.195 535.174C760.663 535.174 770.77 545.281 770.77 557.749Z" fill="#3DA193"/>
<path d="M769.517 514.485C769.517 534.158 753.57 550.106 733.897 550.106C714.224 550.106 698.276 534.158 698.276 514.485C698.276 494.812 714.224 478.865 733.897 478.865C753.569 478.865 769.517 494.812 769.517 514.485Z" fill="#ABE2DB"/>
<path d="M738.769 549.732C738.769 567.161 724.64 581.29 707.211 581.29C689.782 581.29 675.653 567.161 675.653 549.732C675.653 532.303 689.782 518.174 707.211 518.174C724.64 518.174 738.769 532.303 738.769 549.732Z" fill="#7ACAC0"/>
</svg>
