<svg width="800" height="800" viewBox="0 0 800 800" fill="none" xmlns="http://www.w3.org/2000/svg">
<path d="M374.987 111.208C313.211 111.028 237.062 128.639 187.272 187.965C163.908 215.804 152.207 241.959 147.281 266.134C118.813 290.167 102.352 325.616 102.303 362.994C102.347 386.111 108.678 408.774 120.612 428.53C71.8841 447.298 39.7051 494.333 39.6918 546.806C39.7509 582.119 54.4645 615.805 80.2841 639.74C81.0953 641.068 81.5896 641.798 81.5896 641.798L20 695.835H779.912C779.912 695.835 749.258 687.479 722.493 673.203C739.018 658.512 748.496 637.409 748.532 615.229C748.497 583.252 728.949 554.576 699.304 543.011C724.32 518.481 738.429 484.834 738.434 449.697C738.313 403.487 713.873 360.795 674.197 337.483C681.912 321.451 685.945 303.879 685.996 286.068C685.996 220.447 633.097 167.251 567.844 167.251C553.184 167.251 538.653 169.995 524.992 175.342C508.543 155.115 488.724 141.631 470.044 129.8C455.119 120.346 418.642 111.335 374.987 111.208Z" fill="#F0FFFD"/>
<path d="M704.634 450.701C671.295 450.783 642.103 457.753 625.405 476.988C566.036 545.381 576.932 578.541 504.223 583.619C431.514 588.697 383.107 571.183 356.313 633.509C333.973 685.475 260.06 663.406 222.641 695.835H779.912C779.912 695.835 749.258 687.479 722.493 673.203C739.018 658.512 748.496 637.409 748.533 615.229C748.497 583.252 728.949 554.576 699.304 543.011C723.554 519.174 737.55 486.729 738.291 452.636C726.824 451.383 715.508 450.675 704.634 450.701Z" fill="#DCF8F4"/>
<path d="M337.445 363.968L385.718 341.668C397.266 337.073 410.231 336.549 423.864 346.798L469.852 381.822C488.064 395.691 507.069 415.022 504.01 437.708L474.074 659.719C471.015 682.404 450.29 698.205 427.604 695.146L295.196 677.292C272.51 674.233 256.71 653.507 259.769 630.821L289.705 408.81C292.764 386.125 316.664 373.567 337.445 363.968Z" fill="#7ACAC0"/>
<path d="M547.799 677.297L549.576 662.83H532.242H528.113L527.754 683.215L547.799 677.297Z" fill="#F6C6C0"/>
<path d="M439.898 358.405C439.898 358.405 434.597 362.921 429.296 365.277C423.994 367.633 423.994 360.368 424.19 355.263C424.387 350.158 416.517 340.421 405.914 339.636C395.311 338.851 398.447 339.009 396.483 339.009C394.52 339.009 397.879 336.021 408.089 331.308C418.3 326.596 425.368 331.701 431.259 335.235C437.149 338.77 446.636 337.276 447.421 338.258C448.207 339.239 451.333 359.343 451.333 359.343L439.898 358.405Z" fill="#F6CDC1"/>
<path d="M560.028 217.784L549.889 225.686C549.889 225.686 547.621 215.541 527.694 224.786C519.932 228.387 512.669 233.611 508.379 236.616C508.379 236.616 503.14 239.06 498.142 250.168C494.79 257.617 492.524 276.129 490.913 294.116C490.121 302.95 485.835 325.35 485.011 329.466C471.517 337.642 456.663 334.959 456.663 334.959L455.397 366.295C455.397 366.295 470.282 370.03 485.646 369.232C491.722 368.917 496.953 369.68 502.045 366.223C509.644 361.063 516.045 337.504 516.045 337.504C519.231 347.609 521.439 368.959 523.147 396.053H603.982C606.428 363.449 608.829 328.103 606.918 291.315L613.756 234.454C612.138 233.119 610.081 231.125 604.929 229.497L560.028 217.784Z" fill="#6584F7"/>
<path d="M511.317 164.541L505.604 177.642C487.198 174.998 497.149 133.382 511.317 164.541Z" fill="#F69CB3"/>
<path d="M504.291 134.532C504.291 134.532 498.171 135.635 494.688 141.267C491.206 146.9 501.398 165.826 501.398 165.826L504.291 134.532Z" fill="#3D3D3D"/>
<path d="M555.478 132.527C555.478 132.527 564.032 132.33 565.96 143.081C567.889 153.832 557.825 173.864 557.825 173.864C558.943 188.441 553.689 199.881 541.462 185.953C535.944 179.187 533.754 142.786 533.754 142.786C533.754 142.786 510.636 145.598 501.369 138.046C492.103 130.494 482.674 108.528 495.951 104.85C509.227 101.173 511.913 110.627 540.248 110.351C555.046 110.206 560.756 122.519 555.478 132.527Z" fill="#3D3D3D"/>
<path d="M553.407 175.435C553.407 175.435 554.701 193.506 556.157 201.262C557.615 209.018 558.065 213.268 558.065 213.268L541.514 233.367L530.214 225.524L530.522 203.188L553.407 175.435Z" fill="#F6C6C0"/>
<path d="M553.199 179.292L527.609 204.369L530.821 217.602C534.794 218.578 536.429 219.457 539.718 216.522C547.52 209.561 548.394 186.148 548.394 186.148L553.199 179.292Z" fill="#F69CB3"/>
<path d="M553.199 179.292C571.744 177.928 564.699 135.724 548.407 165.827C544.552 158.844 536.335 148.525 541.44 135.483C527.525 139.488 515.991 142.563 501.37 138.046C493.263 202.128 524.168 242.331 553.199 179.292Z" fill="#F6C6C0"/>
<path d="M552.68 170.563C552.61 170.232 553.76 165.505 556.582 162.315C559.405 159.126 561.567 163.146 561.567 163.146C561.567 163.146 559.13 162.321 557.655 164.572C556.179 166.822 560.759 169.857 556.311 172.497C551.864 175.137 552.68 170.563 552.68 170.563Z" fill="#F69CB3"/>
<path d="M541.514 233.367L558.065 213.268L556.801 205.717C563.536 210.458 569.545 216.425 568.487 220.396L555.023 248.94L541.514 233.367Z" fill="white"/>
<path d="M531.457 223.983L530.256 214.767C524.604 220.419 520.208 225.074 521.825 231.58C522.345 233.504 528.097 248.32 528.097 248.32L541.514 233.366L531.457 223.983Z" fill="white"/>
<path d="M620.677 421.336C620.677 421.336 628.236 434.884 636.778 435.572C645.319 436.259 649.344 430.074 649.344 430.074L636.974 422.22L620.677 421.336Z" fill="#F6CDC1"/>
<path d="M523.259 402.023L527.168 612.054L528.113 662.83H549.575L554.907 612.054L567.327 493.744L596.553 612.054L609.096 662.83H628.782L623.195 612.054L605.373 407.774L523.259 402.023Z" fill="#FF6853"/>
<path d="M554.906 612.054H527.168L528.113 662.83H549.576L554.906 612.054Z" fill="#E0523C"/>
<path d="M623.195 612.054H596.553L609.096 662.83H628.782L623.195 612.054Z" fill="#E0523C"/>
<path d="M567.327 493.744L556.889 454.786H548.794L561.955 545.38L567.327 493.744Z" fill="#E0523C"/>
<path d="M523.148 396.053L523.154 402.015L605.374 407.774L603.984 396.053H523.148Z" fill="white"/>
<path d="M528.113 669.248L548.885 669.489L547.798 677.297C547.798 677.297 527.852 675.997 527.807 675.773C527.762 675.548 528.113 669.248 528.113 669.248Z" fill="white"/>
<path d="M493.316 695.835H549.866L547.798 677.297L541.063 675.455C536.478 671.028 528.085 669.943 522.357 676.466C522.357 676.466 511.875 684.009 506.761 684.137C496.401 684.137 492.528 686.119 493.316 695.835Z" fill="#3D3D3D"/>
<path d="M611.381 677.297L609.096 662.83H624.653H628.782L631.426 683.215L611.381 677.297Z" fill="#F6C6C0"/>
<path d="M629.675 669.248L610.143 669.489L611.381 677.297C611.381 677.297 631.327 675.997 631.372 675.773C631.417 675.548 629.675 669.248 629.675 669.248Z" fill="white"/>
<path d="M644.517 695.835H610.57L611.381 677.297L618.116 675.455C622.701 671.029 629.675 669.248 633.521 675.768C638.508 688.683 645.324 683.328 644.517 695.835Z" fill="#3D3D3D"/>
<path d="M606.917 291.315L594.318 280.531C587.466 307.632 599.254 318.218 608.015 330.768C608.432 320.328 607.808 302.016 606.917 291.315Z" fill="#3362C4"/>
<path d="M516.045 337.504L507.826 289.485C506.224 300.856 500.749 347.298 508.88 356.786C508.88 356.786 515.8 343.613 516.045 337.504Z" fill="#3362C4"/>
<path d="M598.159 556.777L674.239 556.969C685.967 556.998 693.639 547.478 692.155 535.844L684.045 472.313C682.559 460.68 674.656 451.12 662.928 451.09L611.657 450.961C599.929 450.932 591.918 460.444 590.434 472.078L582.335 535.568C580.851 547.202 586.431 556.748 598.159 556.777Z" fill="#7ACAC0"/>
<path d="M689.207 359.147C689.04 393.907 660.727 421.951 625.967 421.784C591.207 421.617 563.164 393.304 563.33 358.544C563.497 323.784 591.811 295.74 626.57 295.907C661.33 296.074 689.374 324.387 689.207 359.147Z" fill="#DCF8F4"/>
<path d="M626.107 312.873C621.906 312.917 618.535 316.355 618.574 320.555L618.558 323.774C608.841 327.347 602.625 337.289 603.917 347.746C605.283 358.807 614.658 367.266 625.756 367.552C625.912 367.562 626.07 367.567 626.227 367.566C630.01 367.584 633.064 370.315 633.504 374.073C633.943 377.83 631.601 381.194 627.925 382.085C624.248 382.975 620.627 381.056 619.298 377.513C617.838 373.57 613.457 371.558 609.514 373.019C605.571 374.48 603.559 378.86 605.02 382.803C605.027 382.822 605.034 382.841 605.041 382.86C607.386 389.113 612.31 393.781 618.212 396.024V397.092C618.145 401.296 621.498 404.759 625.702 404.826C629.906 404.894 633.369 401.54 633.436 397.336C633.437 397.279 633.438 397.222 633.437 397.165V396.319C643.395 392.94 649.867 382.914 648.627 372.304C647.326 361.178 637.92 352.638 626.766 352.354C626.611 352.345 626.456 352.34 626.301 352.341C622.538 352.323 619.491 349.615 619.029 345.88C618.568 342.145 620.865 338.778 624.51 337.845C628.156 336.912 631.787 338.762 633.177 342.259C634.706 346.176 639.121 348.111 643.038 346.581C646.954 345.051 648.89 340.637 647.36 336.72C647.349 336.691 647.337 336.662 647.326 336.634C644.843 330.389 639.782 325.796 633.785 323.685L633.8 320.629C633.879 316.426 630.535 312.954 626.331 312.875C626.256 312.874 626.182 312.874 626.108 312.874L626.107 312.873Z" fill="#7ACAC0"/>
<path d="M632.122 410.766C620.278 410.736 610.496 420.467 610.467 432.312L610.363 473.677C610.297 477.622 613.471 480.858 617.417 480.868C621.362 480.878 624.553 477.658 624.507 473.713L624.611 432.347C624.622 428.094 627.833 424.9 632.086 424.91L643.054 424.938C647.307 424.949 650.503 428.16 650.492 432.412L650.388 473.778C650.322 477.723 653.496 480.959 657.442 480.969C661.387 480.979 664.578 477.759 664.532 473.814L664.636 432.448C664.666 420.604 654.933 410.823 643.089 410.794L632.122 410.766Z" fill="#ABE2DB"/>
<path d="M660.537 417.781C660.697 413.736 656.813 392.918 656.813 392.918L656.771 392.274L636.819 391.266C635.664 393.334 633.693 395.369 630.933 398.825C631.233 399.459 623.299 407.665 619.659 412.288C618.553 417.884 628.958 422.135 628.958 422.135C624.221 439.067 659.291 440.921 660.537 417.781Z" fill="#F6CDC1"/>
<path d="M662.013 392.539L632.512 391.049L631.195 381.084L662.551 381.67L662.013 392.539Z" fill="white"/>
<path d="M656.813 392.918L630.626 399.166L636.819 391.266L656.77 392.274L656.813 392.918Z" fill="#F69CB3"/>
<path d="M613.756 234.453C613.756 234.453 629.354 251.247 640.509 263.076C652.168 275.441 661.602 292.353 661.83 310.093C662.064 328.32 662.551 381.67 662.551 381.67L631.195 381.084L625.88 308.728L606.918 291.315L600.158 257.087L613.756 234.453Z" fill="#6584F7"/>
<path d="M222.455 173.037C207.039 230.644 201.376 231.328 194.359 249.778C172.108 298.153 196.495 319.08 227.847 313.142C254.011 307.736 280.649 301.63 280.649 301.63L294.269 329.8C294.269 329.8 333.429 288.031 307.847 259.391C291.333 243.73 297.493 186.405 297.493 186.405C297.493 186.405 235.961 156.693 222.455 173.037Z" fill="#3D3D3D"/>
<path d="M258.96 247.752C253.419 247.719 249.405 248.308 249.405 248.308C236.881 261.469 213.465 268.506 199.738 281.192C183.548 303.288 184.061 319.652 182.578 346.072L182.933 354.536L188.065 355.921L178.99 418.712H259.04L288.934 363.279C297.357 361.838 302.534 357.978 304.74 352.653C304.681 344.423 304.623 342.476 304.565 334.245L317.839 350.04L336.495 327.082C336.495 327.082 324.156 282.363 310.55 273.755C296.943 265.147 281.811 260.181 281.811 260.181L287.318 257.898C281.798 250.682 271.488 248.419 263.01 247.888C261.599 247.799 260.239 247.759 258.96 247.752Z" fill="#FF6853"/>
<path d="M294.858 195.497L300.707 208.538C319.084 205.701 308.7 164.192 294.858 195.497Z" fill="#F69CB3"/>
<path d="M254.779 212.054C254.779 212.054 254.9 230.171 254.053 238.017C253.206 245.863 253.088 250.136 253.088 250.136L271.158 268.881L281.811 260.18L277.722 239.574L254.779 212.054Z" fill="#F6C6C0"/>
<path d="M254.778 212.055L280.093 232.09L279.316 247.632C273.559 247.722 259.601 240.988 259.601 220.985L254.778 212.055Z" fill="#F69CB3"/>
<path d="M253.131 210.683C234.573 209.513 241.178 167.237 257.783 197.169C261.565 190.146 269.674 179.742 264.433 166.755C278.389 170.614 289.954 173.569 304.528 168.899C313.303 232.894 282.818 273.416 253.131 210.683Z" fill="#F6C6C0"/>
<path d="M253.559 201.949C253.626 201.618 252.427 196.903 249.572 193.743C246.716 190.583 244.596 194.625 244.596 194.625C244.596 194.625 247.024 193.776 248.523 196.01C250.021 198.245 245.474 201.327 249.948 203.921C254.423 206.515 253.559 201.949 253.559 201.949Z" fill="#F69CB3"/>
<path d="M271.158 268.881L253.214 248.401L253.727 241.83C246.694 246.117 245.353 253.507 246.147 257.539L256.652 283.532L271.158 268.881Z" fill="white"/>
<path d="M281.811 260.18L279.316 247.631C286.223 249.768 292.025 260.024 289.983 266.409C289.338 268.295 283.561 284.686 283.561 284.686L271.158 268.881L281.811 260.18Z" fill="white"/>
<path d="M304.671 172.069C301.186 187.897 275.316 209.89 259.808 203.882L257.783 197.169C257.783 197.169 252.931 187.596 247.445 186.495C241.96 185.395 222.455 173.037 222.455 173.037C222.455 173.037 227.933 146.522 244.151 134.227C260.37 121.932 287.002 132.742 302.637 141.313C311.628 146.242 309.937 157.4 309.937 157.4C314.257 165.846 321.045 172.656 316.176 183.041C311.308 193.426 305.982 195.401 305.982 195.401C305.982 195.401 306.317 182.402 304.671 172.069Z" fill="#3D3D3D"/>
<path d="M288.934 363.278C281.368 362.779 271.799 361.396 263.097 344.307C254.838 351.654 245.021 358.505 226.391 353.59L270.763 397.178L288.934 363.278Z" fill="#E0523C"/>
<path d="M274.326 677.297L272.549 662.83H289.882H294.011L294.371 683.215L274.326 677.297Z" fill="#F6C6C0"/>
<path d="M258.928 424.681L193.779 429.244L176.814 430.432C153.516 452.636 171.8 498.471 196.994 547.115C189.65 561.774 174.398 594.013 157.045 632.082L172.494 646.612C191.637 618.868 198.813 611.125 217.291 587.026C228.202 572.871 233.608 559.982 232.676 542.875C231.725 526.516 229.986 507.114 227.603 498.101L226.675 486.898L257.863 547.115L267.218 612.054L272.549 662.83H294.011L294.956 612.054L294.366 563.587C294.185 548.742 291.224 534.986 287.639 521.427L258.928 424.681Z" fill="#6584F7"/>
<path d="M267.218 612.054H294.957L294.012 662.83H272.549L267.218 612.054Z" fill="#3362C4"/>
<path d="M259.04 418.71L259.034 424.673L176.815 430.432L178.99 418.71H259.04Z" fill="white"/>
<path d="M294.011 669.248L273.24 669.489L274.326 677.297C274.326 677.297 294.272 675.997 294.317 675.773C294.362 675.548 294.011 669.248 294.011 669.248Z" fill="white"/>
<path d="M320.365 695.835H272.259L274.326 677.297L281.062 675.455C285.647 671.028 294.039 669.943 299.767 676.466C306.1 687.629 320.365 679.779 320.365 695.835Z" fill="#3D3D3D"/>
<path d="M226.676 486.897L233.577 462.514L238.648 462.498L239.727 512.345L226.676 486.897Z" fill="#3362C4"/>
<path d="M444.542 365.521L446.869 333.702L456.663 334.959L455.397 366.295L444.542 365.521Z" fill="white"/>
<path d="M330.228 438.753C335.88 435.489 343.058 437.412 346.321 443.065L443.532 611.439C446.795 617.091 444.872 624.269 439.22 627.532C433.567 630.796 426.39 628.872 423.126 623.22L325.916 454.846C322.652 449.194 324.575 442.016 330.228 438.753Z" fill="#ABE2DB"/>
<path d="M443.629 487.801C443.629 499.73 433.959 509.4 422.03 509.4C410.102 509.4 400.432 499.73 400.432 487.801C400.432 487.801 400.432 487.801 400.432 487.801C400.432 475.872 410.102 466.202 422.03 466.202C433.959 466.202 443.629 475.872 443.629 487.801Z" fill="#F2F4FF"/>
<path d="M357.234 564.772C357.234 576.701 347.564 586.371 335.635 586.371C323.707 586.371 314.036 576.701 314.036 564.772C314.036 552.843 323.706 543.173 335.635 543.173C347.564 543.173 357.234 552.843 357.234 564.772Z" fill="#F2F4FF"/>
<path d="M218.639 344.307L224.082 327.629L226.351 320.955L222.341 380.648C192.789 398.939 200.922 372.247 205.783 362.987C206.543 361.539 213.075 364.509 213.248 363.397L218.639 344.307Z" fill="#E0523C"/>
<path d="M181.62 579.023C174.542 594.03 166.085 612.249 157.045 632.082L172.494 646.612C189.127 622.505 196.734 613.488 210.561 595.733L181.62 579.023Z" fill="#3362C4"/>
<path d="M158.862 587.878L234.942 588.07C246.67 588.1 254.342 578.579 252.857 566.945L244.747 503.414C243.262 491.781 235.359 482.22 223.631 482.191L172.359 482.062C160.631 482.032 152.62 491.545 151.136 503.179L143.038 566.669C141.554 578.302 147.134 587.849 158.862 587.878Z" fill="#3DA193"/>
<path d="M192.825 441.867C180.981 441.837 171.199 451.568 171.169 463.412L171.065 504.778C171 508.723 174.174 511.959 178.12 511.969C182.065 511.979 185.256 508.759 185.21 504.813L185.314 463.448C185.325 459.195 188.537 456 192.79 456.011L203.757 456.039C208.01 456.049 211.205 459.26 211.195 463.513L211.091 504.879C211.025 508.823 214.199 512.059 218.145 512.069C222.09 512.079 225.281 508.859 225.235 504.914L225.339 463.549C225.369 451.704 215.636 441.924 203.792 441.894L192.825 441.867Z" fill="#7ACAC0"/>
<path d="M204.207 460.49C207.868 457.31 205.501 441.898 205.501 441.898C205.859 441.703 212.802 445.749 211.915 440.297C210.704 434.768 206.609 431.721 201.522 430.281C204.48 409.183 209.902 378.097 211.471 354.84C200.926 352.578 189.504 348.314 187.551 356.572C182.058 381.026 185.375 404.922 187.843 430.432L183.838 447.059C183.374 453.333 190.961 461.74 204.207 460.49Z" fill="#F6CDC1"/>
<path d="M213.248 363.397L218.288 354.426L179.734 342.151L181.318 360.997L213.248 363.397Z" fill="white"/>
<path d="M157.046 632.082L150.844 642.568C150.844 642.568 146.23 660.569 147.48 661.541C148.73 662.513 166.501 664.595 166.501 663.901C166.501 663.207 162.753 662.374 162.753 662.374L172.495 646.612L157.046 632.082Z" fill="#F6CDC1"/>
<path d="M153.465 638.137L150.844 642.568C150.844 642.568 146.23 660.569 147.48 661.541C148.729 662.513 166.501 664.596 166.501 663.902C166.501 663.207 162.752 662.374 162.752 662.374L168.142 653.655L153.465 638.137Z" fill="white"/>
<path d="M150.844 642.568C149.426 648.079 158.38 658.575 160.362 659.719C164.09 658.564 171.45 662.107 169.269 665.795C168.464 674.129 170.17 679.604 175.523 684.096C179.709 687.608 186.234 690.062 186.013 695.835H158.259C153.576 695.835 142.523 676.002 140.497 663.505C139.943 659.746 139.94 658.624 141.652 655.656C144.934 649.962 146.944 647.225 150.844 642.568Z" fill="#3D3D3D"/>
<path d="M406.199 269.608C405.254 269.59 404.008 269.911 402.372 270.7C394.319 274.588 386.347 290.858 386.347 290.858C375.792 300.459 357.303 316.049 342.354 331.149C334.981 338.596 329.546 346.816 324.237 352.392C334.827 359.104 344.179 364.777 350.959 359.675C370.814 344.38 382.554 320.682 396.963 299.487L397.753 298.856C397.753 298.856 421.532 297.08 428.474 293.748C432.553 291.79 435.77 285.326 437.841 279.933C440.398 273.254 439.141 271.373 432.656 274.495C429.137 276.194 427.067 277.75 424.309 278.475C419.033 279.864 408.481 280.419 408.759 277.365C408.98 274.93 409.907 269.675 406.199 269.608Z" fill="#F6CDC1"/>
<path d="M320.473 356.397L315.287 352.592L336.652 319.85L342.354 331.149L320.473 356.397Z" fill="white"/>
<path d="M747.669 551.997C747.669 562.11 739.47 570.309 729.357 570.309C719.244 570.309 711.045 562.11 711.045 551.997C711.045 541.884 719.244 533.686 729.357 533.686C739.47 533.686 747.669 541.884 747.669 551.997Z" fill="#3DA193"/>
<path d="M720.376 557.692C720.376 567.805 712.177 576.003 702.064 576.003C691.951 576.003 683.753 567.805 683.753 557.692C683.753 547.579 691.951 539.38 702.064 539.38C712.177 539.38 720.376 547.579 720.376 557.692Z" fill="#3DA193"/>
<path d="M712.807 533.667C710.027 533.772 707.858 536.112 707.963 538.892C707.976 539.227 708.022 539.559 708.101 539.884C708.101 539.884 722.235 602.524 724.564 647.774C724.652 650.555 726.978 652.739 729.759 652.651C732.54 652.562 734.723 650.237 734.635 647.455C734.633 647.389 734.629 647.323 734.625 647.257C732.214 600.41 717.927 537.657 717.927 537.657C717.419 535.259 715.258 533.574 712.807 533.667Z" fill="#3DA193"/>
<path d="M706.735 572.678C703.954 572.574 701.615 574.743 701.51 577.524C701.498 577.858 701.519 578.193 701.572 578.523C701.572 578.523 710.942 642.051 709.851 687.347C709.728 690.128 711.882 692.481 714.662 692.603C717.441 692.726 719.794 690.572 719.917 687.792C719.92 687.725 719.921 687.658 719.922 687.59C721.051 640.696 711.539 577.043 711.539 577.043C711.213 574.613 709.185 572.771 706.735 572.678Z" fill="#7ACAC0"/>
<path d="M747.327 552.963C750.108 552.858 752.447 555.028 752.552 557.808C752.564 558.142 752.544 558.477 752.49 558.807C752.49 558.807 743.12 622.335 744.212 667.632C744.334 670.412 742.18 672.765 739.401 672.887C736.621 673.01 734.268 670.856 734.145 668.076C734.142 668.009 734.141 667.942 734.141 667.875C733.01 620.98 742.523 557.328 742.523 557.328C742.849 554.898 744.877 553.055 747.327 552.963Z" fill="#ABE2DB"/>
<path d="M725.993 587.641C725.993 599.527 716.358 609.162 704.473 609.162C692.587 609.162 682.952 599.526 682.952 587.641C682.952 575.756 692.587 566.121 704.473 566.121C716.358 566.121 725.993 575.756 725.993 587.641Z" fill="#ABE2DB"/>
<path d="M772.367 616.52C772.367 624.725 765.716 631.377 757.511 631.377C749.306 631.377 742.655 624.725 742.655 616.52C742.655 608.316 749.306 601.664 757.511 601.664C765.716 601.664 772.367 608.316 772.367 616.52Z" fill="#7ACAC0"/>
<path d="M677.856 646.182L684.152 684.42C685.025 690.819 689.351 696.077 695.809 696.077H747.601C754.059 696.077 758.268 690.802 759.259 684.42L765.193 646.182H677.856Z" fill="#ABE2DB"/>
<path d="M677.856 646.182L679.295 654.917H763.837L765.193 646.182H677.856Z" fill="#7ACAC0"/>
<path d="M754.541 625.433C754.541 635.547 746.342 643.745 736.229 643.745C726.116 643.745 717.918 635.547 717.918 625.433C717.918 615.32 726.116 607.122 736.229 607.122C746.342 607.122 754.541 615.32 754.541 625.433Z" fill="#3DA193"/>
<path d="M675.008 622.869H768.343C774.801 622.869 780 628.068 780 634.526C780 640.984 774.801 646.183 768.343 646.183H675.008C668.551 646.183 663.351 640.984 663.351 634.526C663.352 628.068 668.551 622.869 675.008 622.869Z" fill="#ABE2DB"/>
<path d="M701.835 615.41C701.835 623.615 695.183 630.266 686.979 630.266C678.774 630.266 672.123 623.615 672.123 615.41C672.123 607.205 678.774 600.554 686.979 600.554C695.183 600.554 701.835 607.205 701.835 615.41Z" fill="#7ACAC0"/>
<path d="M775.75 570.702C775.75 586.422 763.007 599.165 747.288 599.165C731.568 599.165 718.825 586.422 718.825 570.702C718.825 554.983 731.568 542.24 747.287 542.24H747.288C763.007 542.24 775.75 554.983 775.75 570.702Z" fill="#7ACAC0"/>
<path d="M734.317 522.937C734.317 536.955 722.953 548.318 708.936 548.318C694.919 548.318 683.556 536.955 683.556 522.937C683.556 508.92 694.919 497.557 708.936 497.557C722.953 497.557 734.317 508.92 734.317 522.937Z" fill="#3DA193"/>
<path d="M60.523 547.289C61.2083 557.052 53.85 565.522 44.0875 566.206C34.3249 566.892 25.8553 559.534 25.17 549.771C24.4847 540.008 31.843 531.539 41.6055 530.853C51.3683 530.168 59.8377 537.527 60.523 547.289Z" fill="#ABE2DB"/>
<path d="M78.3293 579.701C79.3259 593.9 68.6234 606.219 54.4244 607.215C40.2252 608.212 27.9067 597.51 26.91 583.31C25.9133 569.111 36.6159 556.793 50.8149 555.796C65.0138 554.799 77.3326 565.502 78.3293 579.701Z" fill="#ABE2DB"/>
<path d="M72.9927 510.664C69.8145 510.49 67.274 513.271 67.7324 516.42C67.7324 516.42 76.0283 580.097 74.1724 625.369C74.0013 628.185 76.176 630.593 78.9949 630.709C81.8139 630.824 84.1783 628.602 84.2383 625.782C86.1595 578.913 77.7225 515.109 77.7225 515.109C77.4373 512.674 75.4407 510.797 72.9927 510.664Z" fill="#3DA193"/>
<path d="M49.5718 561.116C46.3907 561.219 44.1009 564.209 44.8314 567.308C44.8314 567.308 58.6267 630.023 60.7097 675.285C60.7838 678.106 63.1593 680.316 65.9778 680.186C68.7963 680.056 70.9591 677.637 70.7736 674.822C68.6168 627.963 54.6699 565.133 54.6699 565.133C54.1744 562.732 52.0223 561.036 49.5718 561.116Z" fill="#ABE2DB"/>
<path d="M107.158 567.81C110.336 567.984 112.559 571.025 111.759 574.106C111.759 574.106 96.5694 636.498 93.4775 681.702C93.341 684.521 90.9168 686.677 88.1015 686.485C85.2865 686.292 83.1785 683.825 83.4269 681.015C86.6276 634.216 101.972 571.713 101.972 571.713C102.52 569.323 104.71 567.675 107.158 567.81Z" fill="#7ACAC0"/>
<path d="M123.637 596.844C122.54 608.679 112.058 617.384 100.223 616.288C88.3881 615.191 79.6829 604.708 80.7792 592.873C81.8758 581.039 92.3586 572.333 104.193 573.43C116.028 574.526 124.733 585.009 123.637 596.844Z" fill="#7ACAC0"/>
<path d="M34.53 645.891L40.8254 684.129C41.6992 690.528 46.0243 695.786 52.4823 695.786H104.275C110.733 695.786 114.942 690.511 115.932 684.129L121.866 645.891H34.53Z" fill="#7ACAC0"/>
<path d="M34.53 645.891L35.9679 654.626H120.51L121.866 645.891H34.53Z" fill="#3DA193"/>
<path d="M31.682 622.5H125.017C131.475 622.5 136.674 627.699 136.674 634.157C136.674 640.615 131.475 645.815 125.017 645.815H31.682C25.2242 645.815 20.0251 640.616 20.0251 634.157C20.0251 627.7 25.2242 622.5 31.682 622.5Z" fill="#7ACAC0"/>
<path d="M89.5921 509.314C88.639 519.6 79.5281 527.166 69.2421 526.213C58.956 525.26 51.3901 516.149 52.3429 505.863C53.2958 495.577 62.4069 488.011 72.6929 488.964C82.9788 489.917 90.5449 499.028 89.5921 509.314Z" fill="#3DA193"/>
<path d="M101.944 542.009C100.631 556.182 88.0766 566.607 73.9032 565.294C59.7299 563.981 49.3046 551.427 50.6177 537.254C51.9308 523.08 64.4849 512.655 78.6582 513.968C92.8314 515.281 103.257 527.835 101.944 542.009Z" fill="#3DA193"/>
<path d="M126.332 564.744C125.504 573.678 117.591 580.249 108.658 579.421C99.7246 578.593 93.1537 570.681 93.9812 561.747C94.809 552.814 102.722 546.243 111.655 547.07C120.588 547.898 127.159 555.811 126.332 564.744Z" fill="#7ACAC0"/>
</svg>
