<svg width="800" height="800" viewBox="0 0 800 800" fill="none" xmlns="http://www.w3.org/2000/svg">
<path d="M425.013 108.993C486.789 108.813 562.938 126.424 612.728 185.751C636.092 213.589 647.793 239.745 652.719 263.919C681.187 287.952 697.648 323.401 697.697 360.779C697.654 383.895 691.322 406.559 679.388 426.315C728.116 445.083 760.295 492.117 760.308 544.59C760.249 579.904 745.535 613.59 719.716 637.525C718.905 638.853 718.41 639.583 718.41 639.583L780 693.62H20.0886C20.0886 693.62 50.7422 685.264 77.5073 670.988C60.9829 656.297 51.5046 635.194 51.4681 613.014C51.5038 581.037 71.0514 552.361 100.697 540.796C75.6809 516.266 61.5714 482.619 61.5666 447.482C61.688 401.272 86.127 358.58 125.803 335.269C118.088 319.236 114.055 301.665 114.004 283.853C114.004 218.233 166.903 165.036 232.157 165.036C232.157 165.036 232.157 165.036 232.157 165.036C246.816 165.037 261.347 167.781 275.008 173.128C291.457 152.901 311.276 139.417 329.956 127.585C344.881 118.132 381.358 109.12 425.013 108.993Z" fill="#F0FFFD"/>
<path d="M95.3671 448.487C128.705 448.568 157.898 455.538 174.596 474.773C233.965 543.165 223.068 576.327 295.777 581.404C368.486 586.482 416.893 568.968 443.687 631.294C466.028 683.26 539.941 661.191 577.36 693.62H20.0886C20.0886 693.62 50.7422 685.263 77.5073 670.988C60.9829 656.297 51.5046 635.194 51.4682 613.014C51.5038 581.037 71.0514 552.361 100.697 540.796C76.4465 516.958 62.4506 484.514 61.7101 450.42C73.177 449.168 84.4928 448.459 95.3671 448.487Z" fill="#DCF8F4"/>
<path d="M549.785 675.084L551.562 660.617H534.228H530.099L529.74 681.002L549.785 675.084Z" fill="#F6C6C0"/>
<path d="M562.939 202.644C575.289 202.56 585.977 203.239 594.553 203.1C615.235 202.764 621.944 204.31 639.713 220.905C684.829 264.396 692.653 357.65 654.238 347.357L653.383 393.84H572.547C562.339 359.912 555.412 337.924 532.025 311.608L514.44 340.287C495.948 363.481 461.28 370.619 444.735 378.586L429.182 351.353C429.182 351.353 473.207 332.433 481.453 319.474C485.806 309.977 488.077 301.131 489.56 292.828C494.004 267.949 491.371 247.948 516.471 229.954C536.327 215.8 562.939 202.644 562.939 202.644Z" fill="#6584F7"/>
<path d="M509.033 166.811L504.207 180.264C485.666 178.852 492.818 136.666 509.033 166.811Z" fill="#F69CB3"/>
<path d="M500.02 137.338C500.02 137.338 493.988 138.846 490.889 144.698C487.79 150.55 499.221 168.755 499.221 168.755L500.02 137.338Z" fill="#3D3D3D"/>
<path d="M550.96 131.922C550.96 131.922 559.482 131.155 562.123 141.753C564.764 152.351 556.06 173.01 556.06 173.01C558.147 187.48 553.668 199.245 540.54 186.164C534.582 179.781 529.97 143.607 529.97 143.607C529.97 143.607 507.09 147.955 497.34 141.038C487.591 134.121 476.717 112.832 489.719 108.278C502.721 103.723 506.031 112.977 534.285 110.811C549.041 109.68 555.559 121.584 550.96 131.922Z" fill="#3D3D3D"/>
<path d="M550.169 174.013L559.984 198.74L544.009 232.832L535.725 223.778L532.407 205.129L550.169 174.013Z" fill="#F6C6C0"/>
<path d="M550.169 174.014L532.407 205.129L535.174 220.681C538.188 220.104 540.993 218.73 542.761 215.945C548.363 207.116 546.184 188.703 546.184 188.703L550.169 174.014Z" fill="#F69CB3"/>
<path d="M551.806 178.735C570.219 176.137 560.374 134.497 546.127 165.62C541.814 158.909 532.927 149.161 537.151 135.808C523.534 140.733 512.231 144.57 497.341 141.038C493.526 205.518 527.044 243.57 551.806 178.735Z" fill="#F6C6C0"/>
<path d="M550.706 170.06C550.613 169.734 551.446 164.941 554.049 161.57C556.653 158.2 559.078 162.066 559.078 162.066C559.078 162.066 556.591 161.407 555.269 163.75C553.948 166.093 558.719 168.816 554.458 171.747C550.197 174.678 550.706 170.06 550.706 170.06Z" fill="#F69CB3"/>
<path d="M544.008 232.831L559.984 198.74L557.295 192.066C564.971 195.053 569.059 198.879 568.984 202.988L561.825 238.886L544.008 232.831Z" fill="white"/>
<path d="M535.725 223.777L533.87 213.195C527.445 216.509 521.506 222.366 524.636 228.294C525.602 230.037 534.569 250.567 534.569 250.567L544.008 232.832L535.725 223.777Z" fill="white"/>
<path d="M572.66 399.81L536.271 505.683C530.703 520.788 528.64 533.466 528.747 549.216L529.154 609.841L530.099 660.617H551.562L556.893 609.841L569.58 535.737L607.5 472.288L617.768 531.07C619.294 539.972 620.839 545.255 623.282 552.524L642.812 610.626L658.497 660.617H678.182L670.043 609.841L657.915 535.74L656.07 459.28L654.773 405.561L572.66 399.81Z" fill="#FF6853"/>
<path d="M556.892 609.841H529.154L530.099 660.617H551.562L556.892 609.841Z" fill="#E0523C"/>
<path d="M758.045 640.35C747.655 651.983 734.541 658.164 728.753 654.156C722.966 650.149 726.697 637.469 737.087 625.837C747.478 614.205 760.592 608.023 766.38 612.031C772.167 616.039 768.436 628.718 758.045 640.35Z" fill="#ABE2DB"/>
<path d="M754.904 617.966C744.514 629.599 731.399 635.78 725.612 631.772C719.824 627.764 723.556 615.085 733.946 603.453C744.336 591.82 757.45 585.639 763.238 589.647C769.025 593.655 765.294 606.334 754.904 617.966Z" fill="#ABE2DB"/>
<path d="M683.287 640.35C693.677 651.983 706.792 658.164 712.579 654.156C718.366 650.149 714.636 637.469 704.245 625.837C693.855 614.205 680.74 608.023 674.953 612.031C669.166 616.039 672.897 628.718 683.287 640.35Z" fill="#7ACAC0"/>
<path d="M686.428 617.966C696.819 629.599 709.933 635.78 715.72 631.772C721.508 627.764 717.776 615.085 707.386 603.453C696.996 591.82 683.881 585.639 678.094 589.647C672.307 593.655 676.038 606.334 686.428 617.966Z" fill="#7ACAC0"/>
<path d="M713.656 533.812C710.478 533.639 707.937 536.419 708.395 539.569C708.395 539.569 716.692 603.245 714.836 648.517C714.664 651.334 716.839 653.741 719.658 653.857C722.477 653.972 724.841 651.751 724.901 648.93C726.823 602.062 718.385 538.258 718.385 538.258C718.1 535.822 716.104 533.946 713.656 533.812Z" fill="#3DA193"/>
<path d="M722.52 515.988C723.8 528.685 719.107 538.696 712.038 538.35C704.97 538.003 698.202 527.429 696.922 514.733C695.642 502.036 700.335 492.024 707.404 492.37C714.472 492.717 721.24 503.291 722.52 515.988Z" fill="#3DA193"/>
<path d="M733.51 528.725C725.692 540.531 714.716 547.795 708.994 544.949C703.272 542.104 704.97 530.226 712.787 518.42C720.604 506.613 731.58 499.349 737.302 502.195C743.024 505.04 741.326 516.918 733.51 528.725Z" fill="#3DA193"/>
<path d="M689.492 532.562C698.86 542.557 710.731 547.908 716.007 544.513C721.284 541.119 717.967 530.265 708.6 520.27C699.232 510.275 687.36 504.924 682.085 508.319C676.808 511.713 680.125 522.567 689.492 532.562Z" fill="#3DA193"/>
<path d="M686.117 576.892C698.807 585.96 712.958 589.112 717.725 583.931C722.491 578.751 716.068 567.2 703.378 558.132C690.688 549.064 676.536 545.912 671.77 551.093C667.003 556.273 673.427 567.824 686.117 576.892Z" fill="#3DA193"/>
<path d="M745.337 600.818C737.464 614.282 725.838 622.945 719.369 620.166C712.902 617.387 714.041 604.22 721.914 590.756C729.787 577.292 741.413 568.629 747.881 571.408C754.349 574.186 753.21 587.354 745.337 600.818Z" fill="#3DA193"/>
<path d="M672.444 643.906L678.74 682.144C679.614 688.543 683.939 693.801 690.397 693.801H742.189C748.647 693.801 752.856 688.526 753.846 682.144L759.78 643.906H672.444Z" fill="#ABE2DB"/>
<path d="M672.444 643.906L673.882 652.641H758.425L759.78 643.906H672.444Z" fill="#7ACAC0"/>
<path d="M669.596 621.868H762.931C769.389 621.868 774.588 627.067 774.588 633.526C774.588 639.983 769.389 645.183 762.931 645.183H669.596C663.138 645.183 657.939 639.984 657.939 633.526C657.94 627.067 663.138 621.868 669.596 621.868Z" fill="#ABE2DB"/>
<path d="M670.042 609.841L642.812 610.626L658.496 660.617H678.182L670.042 609.841Z" fill="#E0523C"/>
<path d="M607.499 472.288L599.551 438.601H591.457L593.406 495.735L607.499 472.288Z" fill="#E0523C"/>
<path d="M572.547 393.84L572.554 399.802L654.773 405.561L653.383 393.84H572.547Z" fill="white"/>
<path d="M530.099 667.035L550.871 667.276L549.785 675.084C549.785 675.084 529.838 673.783 529.794 673.559C529.749 673.335 530.099 667.035 530.099 667.035Z" fill="white"/>
<path d="M495.303 693.622H551.852L549.784 675.084L543.049 673.242C538.464 668.815 530.071 667.73 524.344 674.253C524.344 674.253 513.861 681.796 508.747 681.924C498.387 681.923 494.514 683.906 495.303 693.622Z" fill="#3D3D3D"/>
<path d="M662.548 676.36L658.496 660.617H674.053H678.182L680.826 681.002L662.548 676.36Z" fill="#F6C6C0"/>
<path d="M679.076 667.035L660.33 667.668L662.549 676.36C662.549 676.36 680.728 673.783 680.773 673.559C680.817 673.335 679.076 667.035 679.076 667.035Z" fill="white"/>
<path d="M695.584 693.622C701.641 693.622 672.768 693.622 662.193 693.622L662.549 676.36L667.517 673.242C672.102 668.815 679.076 667.035 682.922 673.555C687.909 686.47 696.391 681.115 695.584 693.622Z" fill="#3D3D3D"/>
<path d="M532.025 311.608L519.38 297.427L514.44 340.287L532.025 311.608Z" fill="#3362C4"/>
<path d="M398.546 358.439C396.394 358.428 394.46 358.602 393.117 359.081C387.743 360.997 392.775 370.453 392.775 370.453C392.775 370.453 384.894 374.343 382.144 375.819C380.197 377.509 378.604 380.236 379.668 384.491C382.541 396.089 402.014 404.165 413.659 398.819C417.215 396.885 432.135 379.418 432.135 379.418L432.666 379.052L423.315 361.399C420.948 361.465 418.19 360.815 413.809 360.213C413.431 360.162 405.004 358.472 398.546 358.439Z" fill="#F6CDC1"/>
<path d="M435.124 383.69L421.296 357.587L429.181 351.353L444.735 378.586L435.124 383.69Z" fill="white"/>
<path d="M432.135 379.418L413.359 360.125L423.315 361.399L432.666 379.052L432.135 379.418Z" fill="#F69CB3"/>
<path d="M394.119 370.343C393.287 370.333 392.775 370.453 392.775 370.453L382.144 375.819C380.197 377.509 378.604 380.236 379.668 384.491C382.541 396.089 402.014 404.165 413.659 398.819C420.159 388.711 407.853 385.324 403.549 377.132C400.455 371.244 396.243 370.369 394.119 370.343Z" fill="#F6CDC1"/>
<path d="M292.105 385.448H528.547C558.377 385.448 582.392 409.463 582.392 439.294V639.775C582.392 669.605 558.377 693.62 528.547 693.62H292.105C262.275 693.62 238.26 669.605 238.26 639.775V439.294C238.26 409.463 262.275 385.448 292.105 385.448Z" fill="#7ACAC0"/>
<path d="M341.279 320.739C298.625 320.739 264.047 348.836 264.047 383.496C264.047 418.155 298.625 446.253 341.279 446.253C367.774 446.223 392.402 435.159 406.522 416.942C420.643 435.159 445.27 446.223 471.766 446.253C514.42 446.253 548.998 418.155 548.998 383.496C548.998 348.836 514.42 320.739 471.766 320.739C445.295 320.747 420.672 340.657 406.522 358.836C392.372 340.657 367.75 320.747 341.279 320.739Z" fill="#ABE2DB"/>
<path d="M220.415 375.303H600.238C614.684 375.303 626.314 386.933 626.314 401.38V424.515C626.314 438.961 614.684 450.591 600.238 450.591H220.415C205.968 450.591 194.338 438.961 194.338 424.515V401.38C194.338 386.933 205.968 375.303 220.415 375.303Z" fill="#DCF8F4"/>
<path d="M238.26 524.218V569.772H582.392V524.218H238.26V524.218Z" fill="#3DA193"/>
<path d="M387.549 375.238V693.62H433.103V375.238H387.549Z" fill="#F0FFFD"/>
<path d="M69.1761 133.777C74.1033 136.138 87.3212 148.361 87.3212 148.361C87.7112 148.241 93.0162 143.981 95.263 147.027C95.4487 152.813 96.1852 158.352 97.7517 163.714C114.907 176.347 148.149 203.378 165.878 218.512C160.125 227.634 146.402 230.013 139.131 225.639C117.804 212.474 104.6 192.988 88.0825 173.391C63.7862 170.277 61.547 157.149 66.4935 146.108C64.9064 142.799 63.431 137.829 65.8984 134.361C66.8929 133.214 67.9903 133.213 69.1761 133.777Z" fill="#F6CDC1"/>
<path d="M50.1288 566.663C47.2239 567.963 46.2378 571.598 48.0873 574.189C48.0873 574.189 84.6122 627.004 103.686 668.103C104.823 670.686 107.859 671.831 110.418 670.643C112.978 669.456 114.063 666.398 112.824 663.862C93.0775 621.313 56.3689 568.449 56.3689 568.449C55.0009 566.415 52.3665 565.661 50.1288 566.663Z" fill="#ABE2DB"/>
<path d="M57.7831 559.285C70.1297 575.227 74.6432 591.287 67.864 595.156C61.0848 599.025 45.5803 589.238 33.2338 573.295C20.8871 557.353 16.3738 541.293 23.153 537.424C29.9319 533.555 45.4366 543.343 57.7831 559.285Z" fill="#ABE2DB"/>
<path d="M89.3953 579.223C89.46 594.82 83.8523 608.189 76.8696 609.085C69.8872 609.98 64.1742 598.062 64.1094 582.465C64.0445 566.868 69.6522 553.498 76.6347 552.603C83.6171 551.707 89.3302 563.626 89.3953 579.223Z" fill="#ABE2DB"/>
<path d="M49.4474 609.969C64.5247 613.962 78.8761 611.904 81.5023 605.373C84.1282 598.841 74.0343 590.309 58.957 586.316C43.8795 582.323 29.5283 584.381 26.9021 590.913C24.276 597.444 34.3699 605.976 49.4474 609.969Z" fill="#ABE2DB"/>
<path d="M95.4946 508.679C92.3165 508.506 89.7759 511.286 90.2343 514.436C90.2343 514.436 98.5303 578.112 96.6743 623.384C96.5032 626.2 98.6779 628.608 101.497 628.724C104.316 628.839 106.68 626.618 106.74 623.797C108.662 576.928 100.224 513.124 100.224 513.124C99.9393 510.689 97.9429 508.812 95.4946 508.679Z" fill="#3DA193"/>
<path d="M124.947 594.493C128.126 594.666 130.348 597.707 129.548 600.788C129.548 600.788 119.071 634.513 115.979 679.717C115.843 682.536 113.418 684.692 110.603 684.5C107.788 684.307 105.68 681.84 105.928 679.03C109.129 632.231 119.761 598.395 119.761 598.395C120.31 596.006 122.499 594.358 124.947 594.493Z" fill="#7ACAC0"/>
<path d="M114.023 487.954C116.342 521.041 107.839 547.131 95.0318 546.228C82.2243 545.325 69.9615 517.771 67.6425 484.683C65.3232 451.597 73.8258 425.506 86.6333 426.409C99.4406 427.313 111.703 454.867 114.023 487.954Z" fill="#3DA193"/>
<path d="M57.0322 643.906L63.3274 682.144C64.2012 688.543 68.5265 693.801 74.9843 693.801H126.777C133.235 693.801 137.443 688.526 138.434 682.144L144.368 643.906H57.0322Z" fill="#ABE2DB"/>
<path d="M57.0322 643.906L58.4701 652.641H143.012L144.368 643.906H57.0322Z" fill="#7ACAC0"/>
<path d="M54.1842 621.868H147.519C153.977 621.868 159.176 627.067 159.176 633.526C159.176 639.983 153.977 645.183 147.519 645.183H54.1842C47.7264 645.183 42.5273 639.984 42.5273 633.526C42.5273 627.067 47.7264 621.868 54.1842 621.868Z" fill="#ABE2DB"/>
<path d="M139.041 544.111C124.877 565.503 104.99 578.665 94.6212 573.508C84.2529 568.353 87.3296 546.831 101.493 525.439C115.657 504.047 135.544 490.886 145.913 496.041C156.281 501.197 153.204 522.719 139.041 544.111Z" fill="#3DA193"/>
<path d="M56.3059 549.66C73.2791 568.899 94.7884 579.199 104.349 572.665C113.908 566.131 107.899 545.238 90.9261 525.999C73.9529 506.76 52.4436 496.46 42.8834 502.994C33.3235 509.528 39.3329 530.421 56.3059 549.66Z" fill="#3DA193"/>
<path d="M154.455 558.858C146.822 577.521 135.17 589.46 128.43 585.524C121.69 581.587 122.414 563.266 130.047 544.603C137.679 525.939 149.331 514.001 156.071 517.937C162.812 521.874 162.088 540.195 154.455 558.858Z" fill="#7ACAC0"/>
<path d="M152.995 596.203C139.52 604.058 125.137 605.887 120.871 600.287C116.604 594.688 124.069 583.781 137.544 575.927C151.019 568.072 165.401 566.243 169.668 571.843C173.934 577.442 166.47 588.349 152.995 596.203Z" fill="#7ACAC0"/>
<path d="M106.393 576.981C110.474 592.035 119.431 603.434 126.401 602.443C133.37 601.451 135.712 588.444 131.632 573.39C127.551 558.336 118.593 546.936 111.624 547.928C104.654 548.919 102.312 561.927 106.393 576.981Z" fill="#7ACAC0"/>
<path d="M210.565 491.531L231.332 414.03L162.203 428.219C137.568 448.524 162.393 492.57 164.526 498.659L154.698 609.841L149.111 660.617H168.796L181.339 609.841L210.565 491.531Z" fill="#6584F7"/>
<path d="M154.698 609.841H181.339L168.796 660.617H149.111L154.698 609.841Z" fill="#3362C4"/>
<path d="M166.512 675.084L168.797 660.617H153.24H149.111L146.467 681.002L166.512 675.084Z" fill="#F6C6C0"/>
<path d="M148.218 667.035L167.749 667.276L166.512 675.084C166.512 675.084 146.566 673.783 146.521 673.559C146.474 673.335 148.218 667.035 148.218 667.035Z" fill="white"/>
<path d="M133.376 693.622H167.322L166.512 675.084L159.776 673.242C155.191 668.815 148.218 667.035 144.372 673.555C139.385 686.47 132.569 681.115 133.376 693.622Z" fill="#3D3D3D"/>
<path d="M206.159 175.175C194.166 246.137 166.285 250.267 151.21 281.548C136.088 313.108 170.185 359.532 196.349 354.127C222.514 348.721 229.909 336.332 229.909 336.332L228.481 345.878C247.371 349.51 335.594 292.614 292.45 254.822C275.936 239.161 282.881 184.192 282.881 184.192C282.881 184.192 219.665 158.831 206.159 175.175Z" fill="#3D3D3D"/>
<path d="M438.437 169.408C433.197 170.956 418.207 180.927 418.207 180.927C417.841 180.746 413.28 175.698 410.578 178.349C409.476 184.031 407.87 189.384 405.472 194.429C386.528 204.179 349.417 225.591 329.511 237.719C333.743 247.638 346.915 252.166 354.788 249.001C377.934 239.388 394.063 222.245 413.482 205.519C437.964 206.301 442.259 193.694 439.128 182.008C441.22 178.993 443.466 174.32 441.58 170.504C440.781 169.214 439.698 169.039 438.437 169.408Z" fill="#F6CDC1"/>
<path d="M273.814 257.306L335.797 234.529L350.185 256.875C350.185 256.875 306.753 296.284 283.945 316.056C279.897 319.564 284.113 322.659 282.782 327.879C274.323 361.065 267.074 306.673 265.11 305.888C263.146 305.102 273.814 257.306 273.814 257.306Z" fill="#FF6853"/>
<path d="M268.949 282.474C268.949 282.474 287.027 284.228 299.244 302.737C294.04 307.769 288.579 312.038 283.944 316.056C279.897 319.564 284.112 322.659 282.781 327.879C281.947 331.152 281.125 333.57 280.318 335.275C276.916 333.296 274.08 331.632 271.716 330.241C268.496 320.683 266.113 306.289 265.11 305.888C264.196 305.522 266.024 294.961 268.234 283.784C268.655 283.009 268.949 282.474 268.949 282.474Z" fill="#E0523C"/>
<path d="M244.349 245.538C238.808 245.505 234.794 246.094 234.794 246.094C223.596 243.584 215.299 241.037 203.256 236.174L183.665 332.305L164.379 416.498H244.429L275.712 356.483C296.679 352.56 294.05 328.008 290.299 316.538C284.409 296.51 273.815 257.306 273.815 257.306C268.669 248.799 257.482 246.243 248.4 245.675C246.988 245.585 245.628 245.545 244.349 245.538Z" fill="#FF6853"/>
<path d="M280.32 190.882L287.344 203.33C305.382 198.816 291.225 158.437 280.32 190.882Z" fill="#F69CB3"/>
<path d="M240.167 209.842C240.167 209.842 240.288 227.958 239.441 235.804C238.594 243.65 238.477 247.923 238.477 247.923L256.546 266.668L267.199 257.968L263.11 237.361L240.167 209.842Z" fill="#F6C6C0"/>
<path d="M240.167 209.842L265.481 229.877L264.705 245.419C258.947 245.509 252.847 234.598 249.309 222.012L240.167 209.842Z" fill="#F69CB3"/>
<path d="M240.167 209.841C221.58 210.382 224.27 167.678 243.556 195.957C246.677 188.616 253.795 177.51 247.382 165.059C261.634 167.62 273.421 169.498 287.504 163.508C302.126 226.425 275.497 269.578 240.167 209.841Z" fill="#F6C6C0"/>
<path d="M239.79 201.105C239.827 200.768 238.199 196.184 235.065 193.3C231.931 190.416 230.192 194.636 230.192 194.636C230.192 194.636 232.532 193.566 234.229 195.654C235.927 197.741 231.682 201.229 236.376 203.4C241.07 205.571 239.79 201.105 239.79 201.105Z" fill="#F69CB3"/>
<path d="M256.546 266.669L238.602 246.188L239.115 239.618C232.082 243.905 230.741 251.294 231.535 255.326L242.041 281.318L256.546 266.669Z" fill="white"/>
<path d="M267.199 257.968L264.705 245.419C271.612 247.555 277.413 257.812 275.372 264.196C274.726 266.082 268.949 282.474 268.949 282.474L256.546 266.669L267.199 257.968Z" fill="white"/>
<path d="M287.938 166.652C285.923 182.734 262.185 207.012 246.189 202.455L243.556 195.957C243.556 195.957 237.845 186.87 232.281 186.279C226.717 185.688 206.159 175.175 206.159 175.175C206.159 175.175 209.175 148.269 224.195 134.535C239.214 120.801 266.727 129.117 283.085 136.213C292.491 140.294 291.832 151.561 291.832 151.561C296.911 159.574 304.296 165.73 300.403 176.52C296.51 187.308 291.388 189.764 291.388 189.764C291.388 189.764 290.527 176.79 287.938 166.652Z" fill="#3D3D3D"/>
<path d="M275.711 356.483C268.145 355.984 255.382 355.712 250.984 338.345C242.725 345.693 230.409 356.291 211.779 351.377L256.151 394.964L275.711 356.483Z" fill="#E0523C"/>
<path d="M259.714 675.084L257.937 660.618H275.271H279.4L279.759 681.002L259.714 675.084Z" fill="#F6C6C0"/>
<path d="M244.316 422.468L179.168 427.031L178.792 427.057L212.064 484.684L243.252 544.902L252.607 609.841L257.938 660.617H279.4L280.345 609.841L279.755 561.374C279.574 546.529 276.614 532.773 273.029 519.213L244.316 422.468Z" fill="#6584F7"/>
<path d="M252.607 609.841H280.345L279.4 660.617H257.938L252.607 609.841Z" fill="#3362C4"/>
<path d="M244.429 416.498L244.422 422.461L162.203 428.219L164.379 416.498H244.429Z" fill="white"/>
<path d="M279.4 667.035L258.628 667.276L259.714 675.084C259.714 675.084 279.66 673.784 279.705 673.56C279.75 673.335 279.4 667.035 279.4 667.035Z" fill="white"/>
<path d="M305.754 693.622H257.648L259.715 675.084L266.45 673.242C271.035 668.816 279.428 667.73 285.155 674.254C291.489 685.416 305.754 677.566 305.754 693.622Z" fill="#3D3D3D"/>
<path d="M355.35 249.937L350.185 256.875L326.598 231.073L343.294 227.031L355.35 249.937Z" fill="white"/>
<path d="M212.064 484.685L218.966 460.302L224.036 460.288L225.116 510.135L212.064 484.685Z" fill="#3362C4"/>
<path d="M203.255 236.174L162.34 210.302L142.425 234.145L194.149 311.227L203.255 236.174Z" fill="#FF6853"/>
<path d="M138.427 226.475L142.425 234.145L169.809 212.413L153.966 205.773L138.427 226.475Z" fill="white"/>
<path d="M29.7749 222.625C26.1662 224.46 23.1996 227.58 21.6636 231.632L20.0886 235.787L28.3972 238.937L29.9723 234.782C31.547 230.628 36.0686 228.593 40.2225 230.167C44.3763 231.742 46.412 236.264 44.8375 240.417L44.7867 240.551L43.4491 244.217L43.3073 244.589C40.851 252.92 45.2403 261.968 53.4859 265.094C62.1303 268.371 71.9174 263.965 75.1945 255.32L75.1947 255.32L76.7694 251.166L76.7696 251.165C78.3441 247.011 82.8659 244.976 87.0199 246.55C91.1727 248.125 93.2084 252.644 91.6359 256.797C91.6355 256.798 91.6359 256.797 91.6359 256.797C91.1126 258.184 90.5513 259.556 90.1057 260.969C87.6491 269.299 92.0387 278.348 100.284 281.474C108.929 284.751 118.716 280.345 121.993 271.7L123.568 267.545L115.26 264.396L113.685 268.55C112.11 272.704 107.588 274.74 103.434 273.165C99.2806 271.591 97.246 267.069 98.8207 262.916L100.077 259.407L100.349 258.743C102.805 250.413 98.416 241.364 90.1708 238.238C81.5264 234.961 71.7397 239.368 68.4626 248.012V248.012L66.8877 252.166L66.8875 252.167C65.3127 256.321 60.7912 258.357 56.6372 256.782C52.4835 255.207 50.4489 250.686 52.0236 246.532L53.4068 242.723L53.5523 242.359C56.0082 234.029 51.6189 224.981 43.3737 221.855C38.7814 220.114 33.8666 220.541 29.7767 222.621L29.7749 222.625Z" fill="#7ACAC0"/>
<path d="M56.2375 337.016L53.8608 345.579L58.1418 346.766L106.776 360.267L111.057 361.456L113.434 352.894L109.153 351.706L60.5171 338.205L56.2375 337.016Z" fill="#7ACAC0"/>
<path d="M120.376 376.104V380.47V386.768V391.134H129.108V386.768V380.47V376.104H120.376Z" fill="#7ACAC0"/>
<path d="M120.376 404.428V408.794V415.092V419.458H129.108V415.092V408.794V404.428H120.376Z" fill="#7ACAC0"/>
<path d="M146.419 393.416H142.053H135.755H131.389V402.147H135.755H142.053H146.419V393.416Z" fill="#7ACAC0"/>
<path d="M118.095 393.416H113.729H107.431H103.065V402.147H107.431H113.729H118.095V393.416H118.095Z" fill="#7ACAC0"/>
<path d="M144.372 110.573L137.19 115.807L139.807 119.397L169.535 160.187L172.151 163.778L179.332 158.544L176.716 154.954L146.987 114.163L144.372 110.573Z" fill="#7ACAC0"/>
<path d="M770.313 222.625C773.922 224.46 776.889 227.58 778.425 231.632L780 235.787L771.691 238.937L770.116 234.782C768.541 230.628 764.02 228.593 759.866 230.167C755.712 231.742 753.676 236.264 755.251 240.417L755.301 240.551L756.639 244.217L756.78 244.589C759.237 252.92 754.847 261.968 746.602 265.094C737.958 268.371 728.17 263.965 724.893 255.32L724.893 255.32L723.318 251.166L723.318 251.165C721.743 247.011 717.221 244.976 713.067 246.55C708.915 248.125 706.879 252.644 708.451 256.797C708.452 256.798 708.451 256.797 708.451 256.797C708.975 258.184 709.536 259.556 709.982 260.969C712.438 269.299 708.049 278.348 699.803 281.474C691.158 284.751 681.371 280.345 678.094 271.7L676.52 267.545L684.828 264.396L686.403 268.55C687.978 272.704 692.499 274.74 696.653 273.165C700.807 271.591 702.841 267.069 701.267 262.916L700.01 259.407L699.738 258.743C697.282 250.413 701.671 241.364 709.917 238.238C718.561 234.961 728.348 239.368 731.625 248.012L731.625 248.012L733.2 252.166L733.2 252.167C734.775 256.321 739.296 258.357 743.45 256.782C747.604 255.207 749.639 250.686 748.064 246.532L746.681 242.723L746.535 242.359C744.079 234.029 748.469 224.981 756.714 221.855C761.306 220.114 766.221 220.541 770.311 222.621L770.313 222.625Z" fill="#7ACAC0"/>
<path d="M743.85 337.016L746.227 345.579L741.946 346.766L693.312 360.267L689.031 361.456L686.654 352.894L690.935 351.706L739.57 338.205L743.85 337.016Z" fill="#7ACAC0"/>
<path d="M762.689 401.895V406.261V412.559V416.925H753.957V412.559V406.261V401.895H762.689Z" fill="#7ACAC0"/>
<path d="M762.689 430.219V434.584V440.883V445.249H753.957V440.883V434.584V430.219H762.689Z" fill="#7ACAC0"/>
<path d="M736.646 419.206H741.012H747.31H751.676V427.938H747.31H741.012H736.646V419.206Z" fill="#7ACAC0"/>
<path d="M764.969 419.206H769.335H775.633H779.999V427.938H775.633H769.335H764.969V419.206Z" fill="#7ACAC0"/>
<path d="M655.716 111L662.898 116.234L660.281 119.824L630.553 160.614L627.937 164.206L620.755 158.971L623.373 155.381L653.101 114.59L655.716 111Z" fill="#7ACAC0"/>
<path d="M415.609 267.149C422.263 267.149 428.291 271.175 430.837 277.323C433.383 283.47 431.968 290.58 427.263 295.285C422.558 299.99 415.448 301.405 409.301 298.859C403.153 296.313 399.127 290.284 399.127 283.631V279.265H407.859V283.631C407.859 286.778 409.736 289.587 412.643 290.791C415.551 291.996 418.864 291.337 421.089 289.112C423.315 286.886 423.974 283.573 422.77 280.666C421.565 277.758 418.756 275.881 415.608 275.881H411.242V267.149H415.609V267.149Z" fill="#7ACAC0"/>
<path d="M355.629 131.639C362.283 131.639 368.311 135.665 370.857 141.813C373.403 147.96 371.989 155.07 367.283 159.775C362.578 164.48 355.468 165.895 349.321 163.349C343.173 160.803 339.147 154.774 339.147 148.121V143.755H347.879V148.121C347.879 151.268 349.756 154.076 352.664 155.281C355.571 156.485 358.884 155.827 361.11 153.602C363.335 151.376 363.995 148.064 362.79 145.156C361.586 142.248 358.776 140.371 355.629 140.371H351.263V131.639H355.629V131.639Z" fill="#7ACAC0"/>
<path d="M712.993 150.74V155.106V161.404V165.77H704.261V161.404V155.106V150.74H712.993Z" fill="#7ACAC0"/>
<path d="M712.993 178.637V183.003V189.301V193.667H704.261V189.301V183.003V178.637H712.993Z" fill="#7ACAC0"/>
<path d="M686.95 167.624H691.316H697.614H701.98V176.356H697.614H691.316H686.95V167.624Z" fill="#7ACAC0"/>
<path d="M715.273 168.051H719.639H725.937H730.303V176.783H725.937H719.639H715.273V168.051Z" fill="#7ACAC0"/>
<path d="M581.397 257.626C579.608 256.147 575.288 256.685 571.605 259.108C570.377 259.916 569.52 260.996 568.931 262.188C564.316 258.382 558.556 253.667 554.063 255.644C546.759 258.858 545.883 260.908 543.938 279.588C545.184 288.811 555.221 296.418 562.154 297.003C565.826 297.6 576.324 300.727 576.324 300.727L587.963 284.491C587.963 284.491 584.696 279.775 580.889 274.813C580.436 270.684 580.051 265.028 581.67 261.633C582.577 259.73 582.334 258.402 581.397 257.626Z" fill="#F6CDC1"/>
<path d="M580.889 274.813L576.324 300.727L587.963 284.491L580.889 274.813Z" fill="#F69CB3"/>
<path d="M572.468 305.627L591.113 279.471L598.646 285.736L581.358 311.902L572.468 305.627Z" fill="white"/>
<path d="M598.646 285.736L632.383 299.588C632.383 299.588 628.136 281.69 624.052 268.765C620.72 277.928 622.946 284.38 598.646 285.736Z" fill="#3362C4"/>
<path d="M654.237 347.357L603.781 325.412L653.383 393.84L654.237 347.357Z" fill="#3362C4"/>
</svg>
